<svg width="20" height="24" viewBox="0 0 20 24" fill="none" xmlns="http://www.w3.org/2000/svg">
<path d="M17.8145 20.9998C16.8185 22.4878 15.7625 23.9397 14.1546 23.9637C12.5466 23.9997 12.0306 23.0157 10.2066 23.0157C8.37062 23.0157 7.80662 23.9397 6.28264 23.9997C4.71066 24.0597 3.52267 22.4158 2.51468 20.9638C0.462703 17.9998 -1.10928 12.5399 1.0027 8.8679C2.04669 7.04392 3.91866 5.89193 5.94664 5.85594C7.48263 5.83194 8.94661 6.89992 9.8946 6.89992C10.8306 6.89992 12.6066 5.61594 14.4665 5.80794C15.2465 5.84394 17.4305 6.11993 18.8345 8.18391C18.7265 8.25591 16.2305 9.71989 16.2545 12.7559C16.2905 16.3798 19.4345 17.5918 19.4705 17.6038C19.4345 17.6878 18.9665 19.3318 17.8145 20.9998ZM10.9626 1.79998C11.8386 0.803991 13.2906 0.0479995 14.4905 0C14.6465 1.40398 14.0826 2.81997 13.2426 3.82796C12.4146 4.84795 11.0466 5.63994 9.7026 5.53194C9.5226 4.15195 10.1946 2.71197 10.9626 1.79998Z" fill="white"/>
</svg>
