<svg width="33" height="33" viewBox="0 0 33 33" fill="none" xmlns="http://www.w3.org/2000/svg">
<rect width="33" height="33" rx="7" fill="#FFF6E9"/>
<path d="M25.9175 12.3029V23.8138H7.5V12.3029H13.2555V11.1518C13.2555 10.99 13.2854 10.8401 13.3454 10.7022C13.4053 10.5643 13.4863 10.4444 13.5882 10.3425C13.6901 10.2406 13.813 10.1566 13.9569 10.0907C14.1008 10.0247 14.2507 9.99475 14.4065 10.0007H19.0109C19.1728 10.0007 19.3227 10.0307 19.4606 10.0907C19.5984 10.1506 19.7184 10.2316 19.8203 10.3335C19.9222 10.4354 20.0061 10.5583 20.0721 10.7022C20.138 10.8461 20.168 10.996 20.162 11.1518V12.3029H25.9175ZM14.4065 12.3029H19.0109V11.1518H14.4065V12.3029ZM8.65109 13.454V15.1177L14.4065 17.9864V16.9073H19.0109V17.9864L24.7664 15.1177V13.454H8.65109ZM15.5576 18.0584V19.2095H17.8598V18.0584H15.5576ZM24.7664 22.6628V16.3947L19.0109 19.2814V20.3606H14.4065V19.2814L8.65109 16.3947V22.6628H24.7664Z" fill="#FF9800"/>
</svg>
