<svg width="33" height="33" viewBox="0 0 33 33" fill="none" xmlns="http://www.w3.org/2000/svg">
<rect width="33" height="33" rx="7" fill="#FFF2DF"/>
<path d="M16.5 27C15.1237 27 13.8274 26.737 12.6111 26.2111C11.3948 25.6844 10.3356 24.9696 9.43334 24.0667C8.53112 23.1637 7.8163 22.1044 7.28889 20.8889C6.76149 19.6733 6.49852 18.377 6.50001 17C6.50001 15.6193 6.76297 14.3218 7.28889 13.1078C7.81556 11.893 8.53038 10.8348 9.43334 9.93333C10.3363 9.03185 11.3956 8.31704 12.6111 7.78889C13.8274 7.26296 15.1237 7 16.5 7C17.8807 7 19.1782 7.26296 20.3922 7.78889C21.607 8.31556 22.6656 9.03037 23.5678 9.93333C24.47 10.8363 25.1844 11.8944 25.7111 13.1078C26.237 14.3226 26.5 15.62 26.5 17C26.5 18.3763 26.237 19.6726 25.7111 20.8889C25.1844 22.1052 24.4696 23.1644 23.5667 24.0667C22.6637 24.9689 21.6056 25.6837 20.3922 26.2111C19.1789 26.7385 17.8815 27.0015 16.5 27ZM16.5 25.8978C17.1519 25.06 17.6896 24.2374 18.1133 23.43C18.5363 22.6226 18.8804 21.7189 19.1456 20.7189H13.8544C14.1485 21.7752 14.4996 22.707 14.9078 23.5144C15.3167 24.3218 15.8474 25.1163 16.5 25.8978ZM15.0856 25.7311C14.567 25.12 14.0937 24.3644 13.6656 23.4644C13.2374 22.5652 12.9189 21.6496 12.71 20.7178H8.44889C9.08593 22.0993 9.98852 23.2326 11.1567 24.1178C12.3256 25.0022 13.6352 25.54 15.0856 25.7311ZM17.9144 25.7311C19.3648 25.54 20.6744 25.0022 21.8433 24.1178C23.0115 23.2326 23.9141 22.0993 24.5511 20.7178H20.2911C20.0096 21.6637 19.6552 22.5863 19.2278 23.4856C18.7996 24.3856 18.3619 25.1348 17.9144 25.7311ZM7.99556 19.6078H12.4789C12.3944 19.1515 12.3352 18.707 12.3011 18.2744C12.2656 17.8426 12.2478 17.4178 12.2478 17C12.2478 16.5822 12.2652 16.1574 12.3 15.7256C12.3348 15.2937 12.3941 14.8493 12.4778 14.3922H7.99667C7.87593 14.7774 7.78149 15.197 7.71334 15.6511C7.64519 16.1044 7.61112 16.5541 7.61112 17C7.61112 17.4459 7.64482 17.8959 7.71223 18.35C7.77964 18.8041 7.87408 19.223 7.99556 19.6067M13.59 19.6067H19.41C19.4944 19.1511 19.5537 18.7141 19.5878 18.2956C19.6233 17.8778 19.6411 17.4459 19.6411 17C19.6411 16.5541 19.6237 16.1222 19.5889 15.7044C19.5541 15.2867 19.4948 14.8496 19.4111 14.3933H13.5889C13.5052 14.8489 13.4459 15.2859 13.4111 15.7044C13.3763 16.1222 13.3589 16.5541 13.3589 17C13.3589 17.4459 13.3763 17.8778 13.4111 18.2956C13.4459 18.7133 13.5063 19.1504 13.59 19.6067ZM20.5222 19.6067H25.0044C25.1252 19.2222 25.2196 18.8033 25.2878 18.35C25.3552 17.8959 25.3889 17.4459 25.3889 17C25.3889 16.5541 25.3552 16.1041 25.2878 15.65C25.2204 15.1959 25.1259 14.777 25.0044 14.3933H20.5211C20.6056 14.8489 20.6648 15.293 20.6989 15.7256C20.7344 16.1581 20.7522 16.583 20.7522 17C20.7522 17.417 20.7348 17.8418 20.7 18.2744C20.6652 18.707 20.6059 19.1515 20.5222 19.6078M20.2911 13.2822H24.5511C23.9 11.8719 23.0082 10.7385 21.8756 9.88222C20.743 9.02593 19.4226 8.48111 17.9144 8.24778C18.433 8.93 18.8993 9.71037 19.3133 10.5889C19.7274 11.4667 20.0533 12.3644 20.2911 13.2822ZM13.8544 13.2822H19.1456C18.8522 12.2393 18.4904 11.2963 18.06 10.4533C17.6296 9.61037 17.1096 8.82667 16.5 8.10222C15.8904 8.82593 15.3704 9.60963 14.94 10.4533C14.5096 11.297 14.147 12.24 13.8544 13.2822ZM8.45001 13.2822H12.71C12.9478 12.3652 13.2737 11.4674 13.6878 10.5889C14.1019 9.71037 14.5682 8.93 15.0867 8.24778C13.5652 8.48185 12.2415 9.03 11.1156 9.89222C9.98963 10.7559 9.10075 11.8856 8.44889 13.2811" fill="#FF9800"/>
</svg>
