<svg width="33" height="33" viewBox="0 0 33 33" fill="none" xmlns="http://www.w3.org/2000/svg">
<rect width="33" height="33" rx="7" fill="#E8E3FF"/>
<path fill-rule="evenodd" clip-rule="evenodd" d="M13.8032 20.2721C13.8954 20.2477 13.9924 20.2474 14.0847 20.2713C14.1771 20.2951 14.2618 20.3424 14.3306 20.4084L16.138 22.1418C16.2116 22.2125 16.2643 22.302 16.2904 22.4006C16.3165 22.4992 16.315 22.6031 16.286 22.7009L15.8916 24.0327C15.7932 24.3652 15.5937 24.6588 15.3208 24.8727L12.7379 26.8954C12.5656 27.033 12.3678 27.1352 12.1558 27.1959C11.9439 27.2566 11.7219 27.2747 11.5029 27.2492C11.2839 27.2236 11.0721 27.1549 10.8798 27.0471C10.6875 26.9392 10.5185 26.7943 10.3825 26.6207C10.2465 26.4471 10.1463 26.2483 10.0876 26.0358C10.0289 25.8232 10.0129 25.6012 10.0405 25.3824C10.0681 25.1636 10.1388 24.9525 10.2485 24.7612C10.3582 24.57 10.5047 24.4023 10.6796 24.268L12.8431 22.5735L13.4122 20.6515C13.4393 20.56 13.4896 20.4771 13.5581 20.4106C13.6266 20.3442 13.711 20.2965 13.8032 20.2721ZM14.2199 21.8431L13.8589 23.0597C13.826 23.1705 13.7595 23.2683 13.6686 23.3395L11.3655 25.1442C11.2533 25.2364 11.1817 25.3689 11.1658 25.5133C11.15 25.6577 11.1913 25.8026 11.2809 25.9169C11.3705 26.0313 11.5012 26.1061 11.6452 26.1253C11.7892 26.1445 11.935 26.1066 12.0514 26.0198L14.6343 23.9965C14.7255 23.9253 14.7922 23.8275 14.8252 23.7167L15.1233 22.7098L14.2199 21.8431ZM19.0469 9.4504C19.4895 9.4504 19.914 9.27457 20.227 8.96159C20.54 8.64861 20.7158 8.22412 20.7158 7.7815C20.7158 7.33888 20.54 6.91439 20.227 6.60141C19.914 6.28843 19.4895 6.1126 19.0469 6.1126C18.6043 6.1126 18.1798 6.28843 17.8668 6.60141C17.5538 6.91439 17.378 7.33888 17.378 7.7815C17.378 8.22412 17.5538 8.64861 17.8668 8.96159C18.1798 9.27457 18.6043 9.4504 19.0469 9.4504ZM19.0469 10.563C19.7846 10.563 20.4921 10.2699 21.0137 9.74831C21.5354 9.22668 21.8284 8.5192 21.8284 7.7815C21.8284 7.0438 21.5354 6.33631 21.0137 5.81468C20.4921 5.29305 19.7846 5 19.0469 5C18.3092 5 17.6017 5.29305 17.0801 5.81468C16.5585 6.33631 16.2654 7.0438 16.2654 7.7815C16.2654 8.5192 16.5585 9.22668 17.0801 9.74831C17.6017 10.2699 18.3092 10.563 19.0469 10.563Z" fill="#7655FB"/>
<path fill-rule="evenodd" clip-rule="evenodd" d="M15.561 10.7655C16.3554 10.4707 17.2088 10.4874 17.9748 10.884C18.7036 11.2606 19.197 11.8982 19.5074 12.5646C19.6235 12.8138 19.7316 13.0473 19.8317 13.265C20.0765 13.7957 20.2768 14.2313 20.4687 14.6112C20.7391 15.1492 20.9371 15.4646 21.1118 15.6682C21.262 15.8423 21.3905 15.9308 21.5563 15.9953C21.751 16.0721 22.0697 16.1416 22.6366 16.1589C23.0487 16.1712 23.439 16.3467 23.7217 16.6468C24.0043 16.9469 24.1562 17.347 24.1439 17.7591C24.1316 18.1711 23.9561 18.5614 23.656 18.8441C23.3559 19.1268 22.9558 19.2787 22.5437 19.2663C21.7888 19.2435 21.0784 19.1467 20.4248 18.8914C19.7416 18.6244 19.2026 18.2166 18.7531 17.6926C18.6996 17.6304 18.6477 17.567 18.5973 17.5023L18.3731 18.6728L20.8025 21.0699C20.9577 21.2223 21.0784 21.4059 21.158 21.6084L22.5398 25.1297C22.6144 25.3198 22.6508 25.5226 22.6469 25.7267C22.6431 25.9308 22.5991 26.1321 22.5174 26.3192C22.4358 26.5062 22.3181 26.6754 22.1711 26.817C22.0241 26.9586 21.8506 27.0698 21.6606 27.1444C21.4706 27.2189 21.2677 27.2553 21.0636 27.2515C20.8596 27.2477 20.6582 27.2037 20.4712 27.122C20.2841 27.0404 20.1149 26.9227 19.9733 26.7757C19.8317 26.6286 19.7205 26.4552 19.6459 26.2652L18.3843 23.0514L14.0123 18.7373C13.8449 18.5718 13.7172 18.3706 13.6388 18.1487C13.5604 17.9268 13.5333 17.69 13.5595 17.4562L13.7403 15.8596C13.244 16.501 12.8268 17.2726 12.5353 18.1849C12.41 18.5777 12.1338 18.9045 11.7674 19.0936C11.4011 19.2827 10.9746 19.3185 10.5819 19.1932C10.1891 19.0679 9.86224 18.7916 9.67315 18.4253C9.48406 18.059 9.44824 17.6325 9.57358 17.2397C10.5571 14.159 12.7818 11.8386 15.5427 10.7728L15.546 10.7711L15.561 10.7655ZM15.9504 11.808L15.9415 11.8114C13.5038 12.7532 11.5167 14.8104 10.6339 17.578C10.6162 17.6332 10.6097 17.6914 10.6145 17.7493C10.6194 17.8071 10.6355 17.8634 10.6621 17.9149C10.6888 17.9665 10.7253 18.0123 10.7696 18.0497C10.8139 18.0872 10.8651 18.1155 10.9204 18.1332C10.9756 18.1508 11.0338 18.1574 11.0917 18.1525C11.1495 18.1477 11.2058 18.1315 11.2573 18.1049C11.3089 18.0783 11.3547 18.0418 11.3921 17.9975C11.4296 17.9532 11.4579 17.9019 11.4756 17.8467C12.0285 16.1149 12.9915 14.8048 14.1236 13.8803C14.2092 13.8104 14.3137 13.7676 14.4237 13.7574C14.5338 13.7471 14.6444 13.7699 14.7414 13.8228C14.8385 13.8757 14.9176 13.9563 14.9686 14.0543C15.0197 14.1523 15.0404 14.2633 15.0281 14.3731L14.6654 17.5813C14.6581 17.6477 14.6659 17.7149 14.6882 17.7779C14.7104 17.8409 14.7465 17.898 14.7939 17.9451L19.2499 22.3421C19.3059 22.3974 19.3483 22.4615 19.3772 22.5346L20.6818 25.8591C20.7022 25.9141 20.7334 25.9645 20.7735 26.0073C20.8136 26.0501 20.8619 26.0845 20.9155 26.1085C20.969 26.1325 21.0269 26.1455 21.0855 26.1469C21.1442 26.1483 21.2026 26.1379 21.2572 26.1165C21.3118 26.0951 21.3617 26.0629 21.4037 26.022C21.4458 25.9811 21.4793 25.9322 21.5023 25.8782C21.5253 25.8242 21.5373 25.7662 21.5376 25.7075C21.5378 25.6488 21.5264 25.5906 21.504 25.5364L20.1221 22.015C20.0996 21.9574 20.0653 21.9051 20.0214 21.8615L17.3801 19.2558C17.315 19.1916 17.2667 19.1123 17.2396 19.0249C17.2124 18.9376 17.2072 18.8449 17.2244 18.7551L17.7701 15.9041C17.7917 15.7907 17.8481 15.6868 17.9314 15.6069C18.0147 15.5269 18.1208 15.4749 18.235 15.458C18.3491 15.441 18.4658 15.46 18.5687 15.5124C18.6716 15.5647 18.7557 15.6477 18.8093 15.75C19.0596 16.2267 19.3099 16.6345 19.597 16.9683C19.9397 17.3671 20.3319 17.6603 20.8297 17.855C21.3193 18.0464 21.8895 18.1332 22.5765 18.1537C22.6352 18.1566 22.6938 18.1478 22.7489 18.1277C22.8041 18.1077 22.8547 18.0768 22.8978 18.037C22.9409 17.9972 22.9757 17.9491 23 17.8957C23.0244 17.8423 23.0378 17.7846 23.0396 17.7259C23.0414 17.6673 23.0314 17.6088 23.0104 17.554C22.9893 17.4993 22.9575 17.4492 22.9169 17.4069C22.8763 17.3645 22.8276 17.3306 22.7737 17.3073C22.7199 17.284 22.6619 17.2716 22.6032 17.2709C21.969 17.252 21.5107 17.1724 21.1513 17.0317C20.8008 16.8948 20.5249 16.6924 20.2679 16.3925C20.0031 16.0849 19.7572 15.6727 19.4752 15.1119C19.2507 14.6575 19.0337 14.1994 18.8243 13.7378L18.8215 13.7312C18.7217 13.5135 18.6142 13.2811 18.4989 13.0341C18.2596 12.5212 17.9147 12.1051 17.4641 11.872C17.0035 11.6339 16.48 11.6117 15.9504 11.808Z" fill="#7655FB"/>
</svg>
