<svg width="108" height="26" viewBox="0 0 108 26" fill="none" xmlns="http://www.w3.org/2000/svg">
<path d="M9.1 14.95H12.35L13.65 9.75H9.1V7.15C9.1 5.811 9.1 4.55 11.7 4.55H13.65V0.182C13.2262 0.1261 11.6259 0 9.9359 0C6.4064 0 3.9 2.1541 3.9 6.11V9.75H0V14.95H3.9V26H9.1V14.95Z" fill="white"/>
<path d="M44.9342 16.8571L51.607 13L44.9342 9.14286V16.8571ZM59.797 6.79C59.9642 7.39429 60.0799 8.20429 60.157 9.23286C60.247 10.2614 60.2856 11.1486 60.2856 11.92L60.3627 13C60.3627 15.8157 60.157 17.8857 59.797 19.21C59.4756 20.3671 58.7299 21.1129 57.5727 21.4343C56.9684 21.6014 55.8627 21.7171 54.1656 21.7943C52.4942 21.8843 50.9642 21.9229 49.5499 21.9229L47.5056 22C42.1184 22 38.7627 21.7943 37.4384 21.4343C36.2813 21.1129 35.5356 20.3671 35.2142 19.21C35.047 18.6057 34.9313 17.7957 34.8542 16.7671C34.7642 15.7386 34.7256 14.8514 34.7256 14.08L34.6484 13C34.6484 10.1843 34.8542 8.11429 35.2142 6.79C35.5356 5.63286 36.2813 4.88714 37.4384 4.56571C38.0427 4.39857 39.1484 4.28286 40.8456 4.20571C42.517 4.11571 44.047 4.07714 45.4613 4.07714L47.5056 4C52.8927 4 56.2484 4.20571 57.5727 4.56571C58.7299 4.88714 59.4756 5.63286 59.797 6.79Z" fill="white"/>
<path d="M94.3637 18.7782C95.8961 18.7782 97.3657 18.1695 98.4492 17.0859C99.5328 16.0024 100.141 14.5328 100.141 13.0004C100.141 11.4681 99.5328 9.99847 98.4492 8.91493C97.3657 7.83138 95.8961 7.22266 94.3637 7.22266C92.8314 7.22266 91.3618 7.83138 90.2782 8.91493C89.1947 9.99847 88.5859 11.4681 88.5859 13.0004C88.5859 14.5328 89.1947 16.0024 90.2782 17.0859C91.3618 18.1695 92.8314 18.7782 94.3637 18.7782Z" stroke="white" stroke-width="2.16667" stroke-linecap="round" stroke-linejoin="round"/>
<path d="M81.3633 18.7778V7.22222C81.3633 5.30677 82.1242 3.46977 83.4786 2.11534C84.8331 0.76091 86.6701 0 88.5855 0H100.141C102.057 0 103.894 0.76091 105.248 2.11534C106.602 3.46977 107.363 5.30677 107.363 7.22222V18.7778C107.363 20.6932 106.602 22.5302 105.248 23.8847C103.894 25.2391 102.057 26 100.141 26H88.5855C86.6701 26 84.8331 25.2391 83.4786 23.8847C82.1242 22.5302 81.3633 20.6932 81.3633 18.7778Z" stroke="white" stroke-width="2.16667"/>
<path d="M102.309 5.0696L102.323 5.05371" stroke="white" stroke-width="2.16667" stroke-linecap="round" stroke-linejoin="round"/>
</svg>
