<svg width="17" height="17" viewBox="0 0 17 17" fill="none" xmlns="http://www.w3.org/2000/svg">
<path d="M14.5641 4.30097H13.1411L9.6497 7.79082C9.76995 8.09728 9.78101 8.43581 9.68101 8.74946C9.58102 9.06312 9.37608 9.33278 9.10064 9.5131C8.82521 9.69343 8.49609 9.77341 8.16862 9.7396C7.84115 9.7058 7.5353 9.56026 7.30252 9.32748C7.06973 9.09469 6.9242 8.78885 6.89039 8.46138C6.85658 8.13391 6.93657 7.80478 7.11689 7.52935C7.29721 7.25391 7.56687 7.04897 7.88053 6.94898C8.19419 6.84899 8.53271 6.86004 8.83917 6.98029L12.3298 3.48968V2.06668C12.3299 1.87626 12.4055 1.69366 12.5401 1.55895L13.8629 0.236112C13.8874 0.211473 13.9181 0.19397 13.9518 0.185483C13.9855 0.176995 14.0208 0.177844 14.0541 0.187939C14.1221 0.20782 14.1726 0.264404 14.1863 0.333986L14.5381 2.09344L16.2968 2.44518C16.3656 2.45894 16.4222 2.50941 16.4421 2.57746C16.4521 2.61052 16.453 2.64568 16.4446 2.6792C16.4363 2.71273 16.419 2.74337 16.3946 2.76786L15.071 4.09069C14.9365 4.22509 14.7542 4.3007 14.5641 4.30097Z" fill="#4169E1"/>
<path d="M1.14697 8.31554C1.14697 10.2168 1.90223 12.0401 3.24659 13.3845C4.59096 14.7288 6.41431 15.4841 8.31553 15.4841C9.25692 15.4841 10.1891 15.2987 11.0588 14.9384C11.9286 14.5782 12.7188 14.0501 13.3845 13.3845C14.0501 12.7188 14.5782 11.9286 14.9384 11.0588C15.2987 10.1891 15.4841 9.25692 15.4841 8.31554C15.4841 7.62888 15.3877 6.96517 15.2081 6.3374C15.1723 6.19325 15.1939 6.04087 15.2683 5.91233C15.3426 5.78378 15.4639 5.68908 15.6067 5.64817C15.7495 5.60725 15.9025 5.62331 16.0337 5.69296C16.1648 5.76261 16.2639 5.88042 16.3099 6.0216C16.5194 6.75107 16.6311 7.5203 16.6311 8.31554C16.6311 12.908 12.908 16.6311 8.31553 16.6311C3.72306 16.6311 0 12.908 0 8.31554C0 3.72307 3.72306 4.03876e-06 8.31553 4.03876e-06C9.09165 -0.000760608 9.86318 0.107055 10.6095 0.320391C10.6822 0.340803 10.7503 0.375395 10.8096 0.422181C10.869 0.468966 10.9185 0.527021 10.9553 0.593008C10.9922 0.658995 11.0156 0.731613 11.0243 0.806687C11.033 0.881762 11.0267 0.957811 11.0059 1.03046C10.9851 1.10312 10.9501 1.17094 10.903 1.23004C10.8559 1.28913 10.7976 1.33834 10.7314 1.37481C10.6652 1.41129 10.5925 1.43433 10.5173 1.4426C10.4422 1.45087 10.3662 1.44422 10.2937 1.42301C9.65035 1.23939 8.98454 1.14648 8.31553 1.14697C6.41431 1.14697 4.59096 1.90223 3.24659 3.2466C1.90223 4.59096 1.14697 6.41432 1.14697 8.31554Z" fill="#4169E1"/>
<path d="M4.58743 8.31538C4.58957 8.82182 4.6949 9.32252 4.897 9.78689C5.0991 10.2513 5.39372 10.6696 5.76288 11.0163C6.13205 11.363 6.568 11.6308 7.04413 11.8034C7.52026 11.976 8.02657 12.0498 8.53215 12.0202C9.03773 11.9906 9.53197 11.8582 9.9847 11.6313C10.4374 11.4043 10.8391 11.0874 11.1653 10.6999C11.4915 10.3125 11.7353 9.86268 11.8818 9.37788C12.0283 8.89309 12.0745 8.38353 12.0175 7.8803C12.0014 7.77838 12.0133 7.67402 12.0517 7.57826C12.0901 7.48251 12.1537 7.39894 12.2358 7.3364C12.3178 7.27385 12.4153 7.23467 12.5178 7.223C12.6203 7.21133 12.7241 7.22761 12.8181 7.27011C13.01 7.35575 13.1392 7.5385 13.1561 7.74801C13.2748 8.75371 13.0772 9.77141 12.5909 10.6597C12.1046 11.5479 11.3536 12.2626 10.4423 12.7043C9.53106 13.1461 8.50482 13.293 7.50623 13.1246C6.50765 12.9562 5.58634 12.4809 4.87035 11.7647C4.15456 11.0493 3.67913 10.1289 3.50999 9.13116C3.34085 8.13341 3.48638 7.10774 3.92641 6.19642C4.36644 5.2851 5.07915 4.5333 5.9657 4.04528C6.85224 3.55725 7.86868 3.35721 8.87404 3.47287C8.95004 3.47992 9.02387 3.50208 9.0912 3.53803C9.15853 3.57399 9.21801 3.62302 9.26614 3.68226C9.31427 3.7415 9.3501 3.80975 9.37151 3.88301C9.39293 3.95628 9.3995 4.03308 9.39085 4.10891C9.38219 4.18475 9.35849 4.2581 9.32112 4.32465C9.28376 4.39121 9.23348 4.44964 9.17324 4.49651C9.113 4.54339 9.04401 4.57776 8.97031 4.59763C8.89661 4.61749 8.81969 4.62245 8.74405 4.6122C8.22182 4.55182 7.69272 4.60256 7.19148 4.7611C6.69025 4.91964 6.2282 5.18238 5.83568 5.53209C5.44315 5.88179 5.12902 6.31056 4.91389 6.79024C4.69876 7.26992 4.58751 7.78967 4.58743 8.31538Z" fill="#4169E1"/>
</svg>
