<svg width="20" height="20" viewBox="0 0 20 20" fill="none" xmlns="http://www.w3.org/2000/svg">
<path d="M9.74924 0C9.97087 0 10.1834 0.0880413 10.3401 0.244756C10.4969 0.401471 10.5849 0.614021 10.5849 0.835649C10.5849 1.05728 10.4969 1.26983 10.3401 1.42654C10.1834 1.58326 9.97087 1.6713 9.74924 1.6713C7.60684 1.6713 5.55218 2.52237 4.03727 4.03727C2.52237 5.55218 1.6713 7.60684 1.6713 9.74924C1.6713 11.8916 2.52237 13.9463 4.03727 15.4612C5.55218 16.9761 7.60684 17.8272 9.74924 17.8272C9.97087 17.8272 10.1834 17.9152 10.3401 18.0719C10.4969 18.2287 10.5849 18.4412 10.5849 18.6628C10.5849 18.8845 10.4969 19.097 10.3401 19.2537C10.1834 19.4104 9.97087 19.4985 9.74924 19.4985C7.16358 19.4985 4.68383 18.4713 2.85549 16.643C1.02715 14.8147 0 12.3349 0 9.74924C0 7.16358 1.02715 4.68383 2.85549 2.85549C4.68383 1.02715 7.16358 0 9.74924 0Z" fill="#4169E1"/>
<path d="M14.7281 6.99713C14.5805 6.83872 14.5001 6.6292 14.504 6.41271C14.5078 6.19622 14.5955 5.98966 14.7486 5.83655C14.9017 5.68345 15.1083 5.59575 15.3247 5.59193C15.5412 5.58811 15.7508 5.66847 15.9092 5.81608L19.2518 9.15867C19.4083 9.31536 19.4962 9.52775 19.4962 9.7492C19.4962 9.97065 19.4083 10.183 19.2518 10.3397L15.9092 13.6823C15.8327 13.7644 15.7404 13.8303 15.6379 13.8759C15.5354 13.9216 15.4247 13.9462 15.3125 13.9482C15.2003 13.9501 15.0889 13.9295 14.9848 13.8875C14.8808 13.8454 14.7863 13.7829 14.7069 13.7035C14.6275 13.6242 14.565 13.5297 14.523 13.4256C14.4809 13.3216 14.4603 13.2101 14.4623 13.0979C14.4643 12.9857 14.4888 12.875 14.5345 12.7725C14.5802 12.67 14.646 12.5778 14.7281 12.5013L16.6445 10.5848H7.51924C7.29762 10.5848 7.08506 10.4968 6.92835 10.3401C6.77164 10.1834 6.68359 9.97083 6.68359 9.7492C6.68359 9.52757 6.77164 9.31502 6.92835 9.15831C7.08506 9.00159 7.29762 8.91355 7.51924 8.91355H16.6445L14.7281 6.99713Z" fill="#4169E1"/>
</svg>
