<svg width="15" height="15" viewBox="0 0 15 15" fill="none" xmlns="http://www.w3.org/2000/svg">
<path d="M12.914 14.5283H1.61425C1.18613 14.5283 0.775535 14.3582 0.472804 14.0555C0.170073 13.7527 0 13.3422 0 12.914V1.61425C0 1.18613 0.170073 0.775535 0.472804 0.472804C0.775535 0.170073 1.18613 0 1.61425 0H12.914C13.3422 0 13.7527 0.170073 14.0555 0.472804C14.3582 0.775535 14.5283 1.18613 14.5283 1.61425V12.914C14.5283 13.3422 14.3582 13.7527 14.0555 14.0555C13.7527 14.3582 13.3422 14.5283 12.914 14.5283Z" stroke="#4169E1" stroke-width="1.21069" stroke-linecap="round" stroke-linejoin="round"/>
<path d="M3.432 5.64989L2.01953 7.26414L3.432 8.8784M5.24804 14.5283V0" stroke="#4169E1" stroke-width="1.21069" stroke-linecap="round" stroke-linejoin="round"/>
</svg>
