<svg width="11" height="11" viewBox="0 0 11 11" fill="none" xmlns="http://www.w3.org/2000/svg">
<path d="M6.11717 0.764647C6.11717 0.56185 6.03661 0.367359 5.89321 0.22396C5.74981 0.0805609 5.55532 0 5.35253 0C5.14973 0 4.95524 0.0805609 4.81184 0.22396C4.66844 0.367359 4.58788 0.56185 4.58788 0.764647V4.58788H0.764647C0.56185 4.58788 0.367359 4.66844 0.22396 4.81184C0.0805609 4.95524 0 5.14973 0 5.35253C0 5.55532 0.0805609 5.74981 0.22396 5.89321C0.367359 6.03661 0.56185 6.11717 0.764647 6.11717H4.58788V9.94041C4.58788 10.1432 4.66844 10.3377 4.81184 10.4811C4.95524 10.6245 5.14973 10.7051 5.35253 10.7051C5.55532 10.7051 5.74981 10.6245 5.89321 10.4811C6.03661 10.3377 6.11717 10.1432 6.11717 9.94041V6.11717H9.94041C10.1432 6.11717 10.3377 6.03661 10.4811 5.89321C10.6245 5.74981 10.7051 5.55532 10.7051 5.35253C10.7051 5.14973 10.6245 4.95524 10.4811 4.81184C10.3377 4.66844 10.1432 4.58788 9.94041 4.58788H6.11717V0.764647Z" fill="white"/>
</svg>
