<svg width="33" height="33" viewBox="0 0 33 33" fill="none" xmlns="http://www.w3.org/2000/svg">
<rect width="33" height="33" rx="7" fill="#FFF0F2"/>
<path d="M14.248 13.754H19.3838L19.5273 13.7648C19.6696 13.7855 19.8069 13.8367 19.9287 13.9152C20.0503 13.9936 20.1528 14.0971 20.2305 14.2179L20.2998 14.3439C20.7287 15.2843 21.3471 16.1395 21.9854 16.7657C22.3047 17.0791 22.6394 17.3445 22.9688 17.5353C23.2757 17.7131 23.6171 17.8469 23.959 17.8585C24.3974 17.9138 24.8418 17.8256 25.2256 17.6056C25.6171 17.3812 25.9235 17.0334 26.0957 16.6163L26.1084 16.5841L26.1172 16.5509C26.1864 16.2939 26.3554 16.0754 26.5859 15.9425C26.8166 15.8096 27.0906 15.7729 27.3477 15.8419C27.604 15.911 27.8219 16.0795 27.9551 16.3107C28.086 16.538 28.1217 16.8069 28.0566 17.0607C27.7855 17.903 27.2478 18.6344 26.5225 19.1417C25.7936 19.6514 24.9169 19.9075 24.0283 19.8702L24.0039 19.8693L23.9805 19.8702C23.3851 19.8981 22.791 19.7906 22.2432 19.5558C21.6953 19.3209 21.2077 18.9643 20.8174 18.5138L19.874 17.4259V23.9464L20.5527 23.7609L23.2275 23.0314C23.4845 22.9613 23.759 22.9959 23.9902 23.1281C24.2212 23.2602 24.3899 23.4788 24.46 23.7355C24.53 23.9924 24.4954 24.267 24.3633 24.4982C24.2311 24.7293 24.0127 24.8988 23.7559 24.9689L22.2734 25.3732L21.2744 25.6466L22.0732 26.3058C22.25 26.4517 22.3719 26.6535 22.418 26.8781C22.464 27.1028 22.4315 27.3373 22.3262 27.5411C22.2208 27.7448 22.0487 27.9067 21.8389 27.9991C21.629 28.0915 21.3933 28.1088 21.1719 28.049H21.1729L16.957 26.9005L16.8164 26.8615L16.6748 26.9005L12.4658 28.049C12.2443 28.1091 12.0089 28.0915 11.7988 27.9991C11.5888 27.9068 11.417 27.745 11.3115 27.5411C11.2061 27.3373 11.1737 27.1038 11.2197 26.879C11.2658 26.6541 11.3873 26.4518 11.5645 26.3058L12.3643 25.6456L11.3633 25.3732L9.88184 24.9698C9.7547 24.9351 9.63546 24.8757 9.53125 24.795C9.42695 24.7142 9.33986 24.6127 9.27441 24.4982C9.20911 24.3838 9.16702 24.2578 9.15039 24.1271C9.13378 23.9962 9.14299 23.8628 9.17773 23.7355C9.21249 23.6083 9.27181 23.4891 9.35254 23.3849C9.43333 23.2806 9.53392 23.1935 9.64844 23.1281C9.763 23.0626 9.88962 23.0206 10.0205 23.004C10.1185 22.9916 10.2174 22.9935 10.3145 23.0099L10.4111 23.0314L13.082 23.7609L13.7598 23.9464V17.4259L12.8174 18.5138C12.427 18.9644 11.9396 19.3209 11.3916 19.5558C10.8436 19.7907 10.2489 19.8983 9.65332 19.8702L9.62891 19.8683L9.60547 19.8702C8.71645 19.9076 7.83975 19.6513 7.11035 19.1417C6.38391 18.634 5.84396 17.9021 5.57227 17.0587C5.50794 16.8053 5.54412 16.5366 5.6748 16.3097C5.80794 16.0788 6.02777 15.9101 6.28516 15.8409C6.54252 15.7718 6.81695 15.8075 7.04785 15.9406C7.16222 16.0065 7.26332 16.0947 7.34375 16.1993C7.42403 16.3039 7.4824 16.4236 7.5166 16.5509L7.52637 16.5841L7.53906 16.6163C7.71123 17.0334 8.01769 17.3812 8.40918 17.6056C8.793 17.8255 9.23736 17.9138 9.67578 17.8585C10.0175 17.8468 10.3591 17.7131 10.666 17.5353C10.9954 17.3445 11.3301 17.0791 11.6494 16.7657C12.2878 16.1394 12.9061 15.2836 13.334 14.3429L13.335 14.3419C13.4142 14.1664 13.5422 14.0175 13.7041 13.9132C13.8662 13.8089 14.0553 13.7534 14.248 13.754Z" stroke="#FF5972" stroke-width="1.07383"/>
<path d="M14.25 13.754H19.3867L19.5303 13.7648C19.6725 13.7856 19.809 13.8367 19.9307 13.9152C20.0928 14.0197 20.2216 14.1684 20.3018 14.3439C20.7307 15.2844 21.3499 16.1395 21.9883 16.7657C22.3077 17.0791 22.6424 17.3445 22.9717 17.5353C23.2833 17.7159 23.6305 17.8516 23.9775 17.8595C24.4108 17.9108 24.8493 17.8237 25.2285 17.6066C25.6203 17.3822 25.9264 17.0337 26.0986 16.6163L26.1123 16.5841L26.1211 16.5509C26.1593 16.4095 26.2279 16.2782 26.3223 16.1661C26.4168 16.0539 26.5348 15.9632 26.668 15.9015C26.7832 15.8481 26.9077 15.8187 27.0342 15.8116C26.8154 16.3562 26.5208 16.9034 26.1279 17.3468C25.6122 17.9288 24.9352 18.3282 24.0088 18.3282C22.4481 18.3282 21.6877 17.5814 20.7949 16.6886C19.8908 15.7844 18.8534 14.7345 16.8203 14.7345C14.787 14.7346 13.75 15.7844 12.8457 16.6886C11.9528 17.5813 11.1924 18.3281 9.63184 18.3282C8.70543 18.3282 8.0284 17.9288 7.5127 17.3468C7.11973 16.9033 6.82427 16.3562 6.60547 15.8116C6.73228 15.8187 6.85712 15.8489 6.97266 15.9025C7.10566 15.9642 7.22393 16.0539 7.31836 16.1661C7.41283 16.2784 7.48139 16.4102 7.51953 16.5519L7.52832 16.5851L7.54199 16.6173C7.71423 17.0347 8.02032 17.3831 8.41211 17.6075C8.79621 17.8275 9.24107 17.9151 9.67969 17.8595C10.0212 17.8477 10.3624 17.714 10.6689 17.5363C10.9982 17.3453 11.333 17.0793 11.6523 16.7657C12.2904 16.1392 12.9082 15.2834 13.3359 14.3429L13.3369 14.3419C13.4162 14.1662 13.545 14.0175 13.707 13.9132C13.869 13.809 14.0574 13.7535 14.25 13.754Z" stroke="#FF5972" stroke-width="1.07383"/>
<path d="M16.8195 11.1627C19.1905 11.1627 20.6735 8.59518 19.4869 6.54095C19.2164 6.07252 18.8275 5.68352 18.359 5.41303C17.8906 5.14254 17.3593 5.00009 16.8184 5C14.4485 5 12.9655 7.5686 14.1521 9.62176C14.4225 10.0902 14.8115 10.4792 15.2799 10.7497C15.7483 11.0202 16.2797 11.1626 16.8205 11.1627" stroke="#FF5972" stroke-width="1.07383" stroke-linecap="round" stroke-linejoin="round"/>
<path d="M10.9195 27.9381C11.2868 28.4879 11.9644 28.7413 12.6022 28.5673L16.8138 27.4183M17.515 24.4116L21.8447 25.5928C22.0398 25.646 22.2226 25.7371 22.3826 25.8609C22.5425 25.9847 22.6766 26.1388 22.777 26.3144C22.8774 26.49 22.9422 26.6836 22.9678 26.8843C22.9934 27.0849 22.9792 27.2887 22.926 27.4838C22.8728 27.679 22.7818 27.8618 22.658 28.0218C22.5342 28.1817 22.3801 28.3157 22.2045 28.4161C22.0289 28.5166 21.8352 28.5814 21.6345 28.607C21.4339 28.6325 21.2302 28.6183 21.035 28.5652L9.73831 25.4844C9.35125 25.37 9.02449 25.1084 8.82825 24.7558C8.63202 24.4031 8.58196 23.9876 8.68886 23.5984C8.79575 23.2092 9.05105 22.8775 9.39989 22.6746C9.74874 22.4716 10.1633 22.4136 10.5544 22.5131L13.2293 23.2433V18.8653C12.7852 19.378 12.2305 19.7831 11.6069 20.05C10.9834 20.317 10.3074 20.4388 9.62985 20.4062C8.62343 20.4485 7.63104 20.1587 6.80557 19.5814C5.9801 19.0041 5.36737 18.1714 5.06178 17.2116C5.00425 17.0145 4.98665 16.8079 5.01002 16.604C5.03339 16.4 5.09725 16.2028 5.19786 16.0238C5.29847 15.8448 5.4338 15.6878 5.59591 15.5618C5.75802 15.4359 5.94366 15.3435 6.14193 15.2903C6.34019 15.237 6.5471 15.2239 6.75051 15.2516C6.95392 15.2794 7.14975 15.3475 7.32649 15.4519C7.50324 15.5564 7.65735 15.695 7.77979 15.8598C7.90222 16.0246 7.99052 16.2122 8.03951 16.4116C8.30045 17.043 8.95334 17.4177 9.62877 17.3243C10.5276 17.3243 12.046 15.88 12.8481 14.1211C12.971 13.8519 13.1686 13.6236 13.4174 13.4633C13.6661 13.303 13.9557 13.2175 14.2516 13.2169H19.3867C19.6831 13.216 19.9734 13.3009 20.2227 13.4613C20.4719 13.6218 20.6694 13.8509 20.7912 14.1211C21.5934 15.88 23.1129 17.3243 24.0095 17.3243C24.3387 17.3704 24.6739 17.3058 24.9624 17.1405C25.2509 16.9753 25.4763 16.7189 25.6031 16.4116C25.7092 16.0166 25.9678 15.6799 26.3221 15.4756C26.6765 15.2713 27.0975 15.2161 27.4925 15.3222C27.8875 15.4283 28.2242 15.6869 28.4285 16.0412C28.6328 16.3956 28.688 16.8166 28.5819 17.2116C28.2754 18.1721 27.6615 19.0052 26.8349 19.5825C26.0082 20.1598 25.0147 20.4492 24.0074 20.4062C23.3307 20.4379 22.6558 20.3157 22.0332 20.0488C21.4107 19.7819 20.8568 19.3772 20.4132 18.8653M20.4132 18.8653V23.2433L23.0892 22.5131C23.4283 22.4218 23.7885 22.449 24.11 22.5904C24.4315 22.7317 24.6951 22.9786 24.8571 23.2902C25.0191 23.6018 25.0698 23.9594 25.0008 24.3037C24.9318 24.6481 24.7472 24.9585 24.4777 25.1837M20.4132 18.8653V17.3254M13.2229 17.3254V18.8653" stroke="#FF5972" stroke-width="1.07383" stroke-linecap="round" stroke-linejoin="round"/>
</svg>
