<svg width="19" height="20" viewBox="0 0 19 20" fill="none" xmlns="http://www.w3.org/2000/svg">
<path d="M9.37275 12.9225C11.0197 12.9225 12.3549 11.5874 12.3549 9.94037C12.3549 8.29339 11.0197 6.95825 9.37275 6.95825C7.72577 6.95825 6.39062 8.29339 6.39062 9.94037C6.39062 11.5874 7.72577 12.9225 9.37275 12.9225Z" stroke="#4169E1" stroke-width="1.49106"/>
<path d="M11.1265 0.151094C10.7617 -4.44371e-08 10.2984 0 9.372 0C8.44555 0 7.98233 -4.44371e-08 7.61752 0.151094C7.37614 0.251008 7.15683 0.397512 6.97211 0.582233C6.78739 0.766953 6.64088 0.986268 6.54097 1.22764C6.44952 1.44931 6.41274 1.70876 6.39882 2.0855C6.39235 2.35779 6.31692 2.624 6.17958 2.85921C6.04224 3.09443 5.84749 3.29096 5.61353 3.43043C5.37576 3.56341 5.10815 3.63389 4.83573 3.63528C4.5633 3.63667 4.29498 3.56893 4.05587 3.43839C3.72187 3.26145 3.48032 3.16403 3.24076 3.13222C2.71821 3.0635 2.18976 3.20509 1.77156 3.52586C1.45944 3.76741 1.22683 4.16801 0.763607 4.9702C0.300384 5.77239 0.0677786 6.17299 0.0170825 6.56564C-0.0170775 6.82454 0.000104138 7.08763 0.067646 7.33989C0.135188 7.59215 0.251766 7.82863 0.410722 8.03582C0.55784 8.22668 0.763607 8.38672 1.08269 8.58752C1.55288 8.88275 1.85506 9.38573 1.85506 9.94041C1.85506 10.4951 1.55288 10.9981 1.08269 11.2923C0.763607 11.4941 0.556846 11.6541 0.410722 11.845C0.251766 12.0522 0.135188 12.2887 0.067646 12.5409C0.000104138 12.7932 -0.0170775 13.0563 0.0170825 13.3152C0.0687726 13.7068 0.300384 14.1084 0.762613 14.9106C1.22683 15.7128 1.45844 16.1134 1.77156 16.3549C1.97876 16.5139 2.21524 16.6305 2.4675 16.698C2.71976 16.7656 2.98285 16.7828 3.24175 16.7486C3.48032 16.7168 3.72187 16.6194 4.05587 16.4424C4.29498 16.3119 4.5633 16.2441 4.83573 16.2455C5.10815 16.2469 5.37576 16.3174 5.61353 16.4504C6.09365 16.7287 6.37894 17.2406 6.39882 17.7953C6.41274 18.1731 6.44853 18.4315 6.54097 18.6532C6.64088 18.8945 6.78739 19.1139 6.97211 19.2986C7.15683 19.4833 7.37614 19.6298 7.61752 19.7297C7.98233 19.8808 8.44555 19.8808 9.372 19.8808C10.2984 19.8808 10.7617 19.8808 11.1265 19.7297C11.3679 19.6298 11.5872 19.4833 11.7719 19.2986C11.9566 19.1139 12.1031 18.8945 12.203 18.6532C12.2945 18.4315 12.3313 18.1731 12.3452 17.7953C12.3651 17.2406 12.6503 16.7277 13.1305 16.4504C13.3682 16.3174 13.6358 16.2469 13.9083 16.2455C14.1807 16.2441 14.449 16.3119 14.6881 16.4424C15.0221 16.6194 15.2637 16.7168 15.5022 16.7486C15.7611 16.7828 16.0242 16.7656 16.2765 16.698C16.5288 16.6305 16.7652 16.5139 16.9724 16.3549C17.2856 16.1144 17.5172 15.7128 17.9804 14.9106C18.4436 14.1084 18.6762 13.7078 18.7269 13.3152C18.7611 13.0563 18.7439 12.7932 18.6764 12.5409C18.6088 12.2887 18.4922 12.0522 18.3333 11.845C18.1862 11.6541 17.9804 11.4941 17.6613 11.2933C17.4286 11.1515 17.2357 10.9531 17.1006 10.7165C16.9656 10.4799 16.8927 10.2128 16.8889 9.94041C16.8889 9.38573 17.1911 8.88275 17.6613 8.58851C17.9804 8.38672 18.1871 8.22668 18.3333 8.03582C18.4922 7.82863 18.6088 7.59215 18.6764 7.33989C18.7439 7.08763 18.7611 6.82454 18.7269 6.56564C18.6752 6.17399 18.4436 5.77239 17.9814 4.9702C17.5172 4.16801 17.2856 3.76741 16.9724 3.52586C16.7652 3.36691 16.5288 3.25033 16.2765 3.18279C16.0242 3.11524 15.7611 3.09806 15.5022 3.13222C15.2637 3.16403 15.0221 3.26145 14.6871 3.43839C14.4481 3.56875 14.18 3.63639 13.9078 3.635C13.6355 3.63361 13.3681 3.56323 13.1305 3.43043C12.8965 3.29096 12.7018 3.09443 12.5644 2.85921C12.4271 2.624 12.3516 2.35779 12.3452 2.0855C12.3313 1.70776 12.2955 1.44931 12.203 1.22764C12.1031 0.986268 11.9566 0.766953 11.7719 0.582233C11.5872 0.397512 11.3679 0.251008 11.1265 0.151094Z" stroke="#4169E1" stroke-width="1.49106"/>
</svg>
