<svg width="33" height="33" viewBox="0 0 33 33" fill="none" xmlns="http://www.w3.org/2000/svg">
<rect width="33" height="33" rx="7" fill="#D2DBF5" fill-opacity="0.8"/>
<path d="M8.64087 18.3397H11.9872C12.0919 18.3397 12.1876 18.3659 12.2744 18.4183C12.3611 18.4706 12.4295 18.5491 12.4796 18.6538L14.2308 22.1168L18.2266 14.1689C18.3313 13.9543 18.4988 13.847 18.7292 13.847C18.9588 13.847 19.1263 13.9543 19.2317 14.1689L21.3183 18.3409H24.3079C24.171 16.2902 23.3483 14.5623 21.8399 13.1571C20.3315 11.7518 18.5429 11.0488 16.4744 11.0481C14.4058 11.0473 12.6173 11.7499 11.1088 13.1559C9.60037 14.5619 8.77772 16.2899 8.64087 18.3397ZM16.4744 26.7532C18.5429 26.7532 20.3315 26.0506 21.8399 24.6454C23.3483 23.2401 24.171 21.5122 24.3079 19.4615H20.9615C20.8568 19.4615 20.7611 19.4354 20.6744 19.383C20.5876 19.3307 20.5192 19.2521 20.4691 19.1474L18.7179 15.6856L14.7232 23.6537C14.6178 23.8683 14.4503 23.9719 14.2207 23.9644C13.9911 23.9569 13.8232 23.8463 13.717 23.6324L11.6304 19.4615H8.64199C8.77885 21.5122 9.6015 23.2401 11.1099 24.6454C12.6184 26.0506 14.4065 26.7532 16.4744 26.7532ZM16.4744 27.875C15.2344 27.875 14.0704 27.6409 12.9822 27.1728C11.8941 26.7046 10.9424 26.0629 10.1272 25.2478C9.31207 24.4326 8.67041 23.4806 8.20224 22.3917C7.73408 21.3028 7.5 20.1391 7.5 18.9006H8.62179C8.62179 21.0694 9.38835 22.9204 10.9215 24.4535C12.4546 25.9866 14.3056 26.7532 16.4744 26.7532C18.6432 26.7532 20.4941 25.9866 22.0272 24.4535C23.5604 22.9204 24.3269 21.0694 24.3269 18.9006H25.4487C25.4487 20.1406 25.2146 21.3046 24.7465 22.3928C24.2783 23.4809 23.6366 24.4326 22.8215 25.2478C22.0063 26.0629 21.0543 26.7046 19.9654 27.1728C18.8765 27.6409 17.7128 27.875 16.4744 27.875ZM7.5 18.9006C7.5 17.6607 7.73408 16.4966 8.20224 15.4085C8.67041 14.3204 9.31207 13.3687 10.1272 12.5535C10.9424 11.7384 11.8944 11.0967 12.9833 10.6285C14.0722 10.1604 15.2359 9.92628 16.4744 9.92628C17.5618 9.92628 18.6132 10.1207 19.6288 10.5096C20.6444 10.8985 21.5763 11.4478 22.4244 12.1575L23.6494 10.9314L24.4436 11.7256L23.2186 12.9506C23.9291 13.7995 24.4784 14.7317 24.8665 15.7473C25.2546 16.7629 25.4487 17.814 25.4487 18.9006H24.3269C24.3269 16.7318 23.5604 14.8809 22.0272 13.3478C20.4941 11.8146 18.6432 11.0481 16.4744 11.0481C14.3056 11.0481 12.4546 11.8146 10.9215 13.3478C9.38835 14.8809 8.62179 16.7318 8.62179 18.9006H7.5ZM13.5409 7.12179V6H19.4079V7.12179H13.5409ZM16.4744 26.7532C14.3056 26.7532 12.4546 25.9866 10.9215 24.4535C9.38835 22.9204 8.62179 21.0694 8.62179 18.9006C8.62179 16.7318 9.38835 14.8809 10.9215 13.3478C12.4546 11.8146 14.3056 11.0481 16.4744 11.0481C18.6432 11.0481 20.4941 11.8146 22.0272 13.3478C23.5604 14.8809 24.3269 16.7318 24.3269 18.9006C24.3269 21.0694 23.5604 22.9204 22.0272 24.4535C20.4941 25.9866 18.6432 26.7532 16.4744 26.7532Z" fill="#4169E1"/>
</svg>
