<svg width="33" height="33" viewBox="0 0 33 33" fill="none" xmlns="http://www.w3.org/2000/svg">
<rect width="33" height="33" rx="7" fill="#E8E3FF"/>
<path d="M8.5 20.6562V23.4688C8.5 23.8417 8.64816 24.1994 8.91188 24.4631C9.1756 24.7268 9.53329 24.875 9.90625 24.875H12.7188M21.1562 24.875H23.9688C24.3417 24.875 24.6994 24.7268 24.9631 24.4631C25.2268 24.1994 25.375 23.8417 25.375 23.4688V20.6562M25.375 12.2188V9.40625C25.375 9.03329 25.2268 8.6756 24.9631 8.41188C24.6994 8.14816 24.3417 8 23.9688 8H21.1562M8.5 12.2188V9.40625C8.5 9.03329 8.64816 8.6756 8.91188 8.41188C9.1756 8.14816 9.53329 8 9.90625 8H12.7188M21.625 16.4375L16.9375 21.125L12.25 16.4375C11.7812 15.9688 11.5469 15.0312 12.25 14.0938C12.9531 13.1562 14.3594 13.1562 15.0625 13.625C15.7656 14.0938 16 14.5625 16.9375 14.5625C17.875 14.5625 18.1094 14.0938 18.8125 13.625C19.5156 13.1562 20.9219 13.1562 21.625 14.0938C22.3281 15.0312 22.0938 15.9688 21.625 16.4375Z" stroke="#7655FB" stroke-width="1.875" stroke-linecap="round" stroke-linejoin="round"/>
</svg>
