<svg width="15" height="19" viewBox="0 0 15 19" fill="none" xmlns="http://www.w3.org/2000/svg">
<path d="M1.83515 15.5991V7.3409C1.83515 5.88077 2.41519 4.48043 3.44766 3.44796C4.48014 2.41549 5.88047 1.83545 7.34061 1.83545C8.80075 1.83545 10.2011 2.41549 11.2336 3.44796C12.266 4.48043 12.8461 5.88077 12.8461 7.3409V15.5991M1.83515 15.5991H12.8461M1.83515 15.5991H0M12.8461 15.5991H14.6812M6.42303 18.3518H8.25818" stroke="#797777" stroke-width="1.37636" stroke-linecap="round" stroke-linejoin="round"/>
<path d="M7.33945 1.83515C7.84621 1.83515 8.25703 1.42434 8.25703 0.917576C8.25703 0.410813 7.84621 0 7.33945 0C6.83269 0 6.42188 0.410813 6.42188 0.917576C6.42188 1.42434 6.83269 1.83515 7.33945 1.83515Z" stroke="#797777" stroke-width="1.37636"/>
</svg>
