<svg width="50" height="50" viewBox="0 0 50 50" fill="none" xmlns="http://www.w3.org/2000/svg">
<g filter="url(#filter0_d_885_10387)">
<circle cx="24.851" cy="24.8508" r="24.851" fill="#7655FB"/>
</g>
<path d="M35.1682 20.1177L34.8433 20.8652C34.7925 20.987 34.7069 21.0909 34.5971 21.1641C34.4874 21.2372 34.3584 21.2763 34.2265 21.2763C34.0946 21.2763 33.9657 21.2372 33.8559 21.1641C33.7462 21.0909 33.6605 20.987 33.6097 20.8652L33.2848 20.1177C32.7136 18.7953 31.6675 17.735 30.3528 17.1461L29.3504 16.6984C29.2288 16.6424 29.1258 16.5528 29.0535 16.4401C28.9813 16.3273 28.9429 16.1963 28.9429 16.0624C28.9429 15.9286 28.9813 15.7975 29.0535 15.6848C29.1258 15.5721 29.2288 15.4824 29.3504 15.4265L30.2974 15.0052C31.645 14.3995 32.7091 13.3 33.2703 11.9332L33.6058 11.1262C33.6549 11.0012 33.7405 10.8939 33.8514 10.8182C33.9624 10.7426 34.0936 10.7021 34.2278 10.7021C34.3621 10.7021 34.4933 10.7426 34.6043 10.8182C34.7152 10.8939 34.8008 11.0012 34.8499 11.1262L35.184 11.9319C35.7447 13.2989 36.8083 14.3989 38.1557 15.0052L39.104 15.4278C39.2252 15.4839 39.3279 15.5735 39.3998 15.6861C39.4718 15.7987 39.51 15.9295 39.51 16.0631C39.51 16.1967 39.4718 16.3275 39.3998 16.4401C39.3279 16.5526 39.2252 16.6422 39.104 16.6984L38.1002 17.1448C36.7858 17.7343 35.7402 18.795 35.1695 20.1177M17.0571 18.6279C17.0571 17.4429 17.3761 16.2798 17.9804 15.2605C18.5847 14.2412 19.4522 13.4033 20.4918 12.8346C21.5314 12.266 22.7049 11.9876 23.8892 12.0286C25.0735 12.0696 26.2249 12.4285 27.2227 13.0677L25.7963 15.2891C25.1975 14.9059 24.5065 14.6909 23.796 14.6666C23.0854 14.6424 22.3814 14.8097 21.7578 15.1512C21.1342 15.4926 20.614 15.9956 20.2517 16.6073C19.8893 17.219 19.6983 17.917 19.6985 18.6279V26.5523C19.6985 27.6031 20.116 28.6109 20.859 29.354C21.6021 30.097 22.6099 30.5145 23.6607 30.5145C24.7115 30.5145 25.7193 30.097 26.4624 29.354C27.2055 28.6109 27.6229 27.6031 27.6229 26.5523V19.9487H30.2643V26.5523C30.2643 28.3037 29.5686 29.9833 28.3302 31.2218C27.0918 32.4602 25.4121 33.1559 23.6607 33.1559C21.9093 33.1559 20.2297 32.4602 18.9912 31.2218C17.7528 29.9833 17.0571 28.3037 17.0571 26.5523V18.6279ZM10.707 29.1436L13.2983 28.6245C13.7796 31.0183 15.0747 33.1716 16.9637 34.7186C18.8527 36.2656 21.2191 37.1109 23.6607 37.1109C26.1024 37.1109 28.4687 36.2656 30.3577 34.7186C32.2467 33.1716 33.5419 31.0183 34.0231 28.6245L36.6144 29.1436C35.4099 35.1964 30.0689 39.7596 23.6607 39.7596C17.2525 39.7596 11.9115 35.1964 10.707 29.1436Z" fill="white"/>
<defs>
<filter id="filter0_d_885_10387" x="-3.05859" y="-0.000244141" width="55.8203" height="55.8193" filterUnits="userSpaceOnUse" color-interpolation-filters="sRGB">
<feFlood flood-opacity="0" result="BackgroundImageFix"/>
<feColorMatrix in="SourceAlpha" type="matrix" values="0 0 0 0 0 0 0 0 0 0 0 0 0 0 0 0 0 0 127 0" result="hardAlpha"/>
<feOffset dy="3.05859"/>
<feGaussianBlur stdDeviation="1.52929"/>
<feComposite in2="hardAlpha" operator="out"/>
<feColorMatrix type="matrix" values="0 0 0 0 0 0 0 0 0 0 0 0 0 0 0 0 0 0 0.25 0"/>
<feBlend mode="normal" in2="BackgroundImageFix" result="effect1_dropShadow_885_10387"/>
<feBlend mode="normal" in="SourceGraphic" in2="effect1_dropShadow_885_10387" result="shape"/>
</filter>
</defs>
</svg>
