<svg width="65" height="65" viewBox="0 0 65 65" fill="none" xmlns="http://www.w3.org/2000/svg">
<g filter="url(#filter0_d_886_11948)">
<circle cx="32.5" cy="32.5" r="32.5" fill="#7655FB"/>
</g>
<path d="M45.9902 26.3136L45.5653 27.2912C45.4989 27.4504 45.3868 27.5864 45.2433 27.6821C45.0998 27.7777 44.9311 27.8287 44.7586 27.8287C44.5861 27.8287 44.4175 27.7777 44.274 27.6821C44.1304 27.5864 44.0184 27.4504 43.952 27.2912L43.5271 26.3136C42.7801 24.5842 41.4119 23.1975 39.6926 22.4273L38.3817 21.8418C38.2226 21.7686 38.0879 21.6514 37.9935 21.504C37.899 21.3566 37.8488 21.1852 37.8488 21.0101C37.8488 20.8351 37.899 20.6637 37.9935 20.5163C38.0879 20.3689 38.2226 20.2516 38.3817 20.1785L39.6201 19.6275C41.3826 18.8353 42.7741 17.3974 43.5081 15.6099L43.9468 14.5546C44.011 14.3911 44.123 14.2508 44.2681 14.1518C44.4132 14.0529 44.5847 14 44.7604 14C44.936 14 45.1075 14.0529 45.2527 14.1518C45.3978 14.2508 45.5097 14.3911 45.5739 14.5546L46.0109 15.6082C46.7441 17.396 48.135 18.8346 49.8972 19.6275L51.1373 20.1802C51.2959 20.2536 51.4301 20.3708 51.5242 20.518C51.6183 20.6652 51.6683 20.8363 51.6683 21.011C51.6683 21.1857 51.6183 21.3568 51.5242 21.504C51.4301 21.6512 51.2959 21.7684 51.1373 21.8418L49.8246 22.4256C48.1057 23.1966 46.7382 24.5838 45.9919 26.3136M22.3046 24.3653C22.3046 22.8156 22.7217 21.2944 23.512 19.9614C24.3024 18.6284 25.4368 17.5325 26.7965 16.7889C28.1561 16.0452 29.6908 15.6811 31.2396 15.7347C32.7883 15.7883 34.2942 16.2577 35.5991 17.0936L33.7337 19.9988C32.9505 19.4977 32.0469 19.2165 31.1176 19.1847C30.1884 19.153 29.2677 19.3719 28.4522 19.8184C27.6366 20.265 26.9562 20.9227 26.4824 21.7227C26.0085 22.5227 25.7587 23.4355 25.759 24.3653V34.7287C25.759 36.103 26.305 37.421 27.2767 38.3927C28.2485 39.3645 29.5665 39.9104 30.9407 39.9104C32.315 39.9104 33.633 39.3645 34.6048 38.3927C35.5765 37.421 36.1225 36.103 36.1225 34.7287V26.0925H39.5769V34.7287C39.5769 37.0192 38.667 39.2158 37.0474 40.8354C35.4278 42.455 33.2312 43.3649 30.9407 43.3649C28.6503 43.3649 26.4536 42.455 24.834 40.8354C23.2144 39.2158 22.3046 37.0192 22.3046 34.7287V24.3653ZM14 38.1176L17.3888 37.4387C18.0182 40.5693 19.712 43.3854 22.1825 45.4085C24.6529 47.4317 27.7476 48.5372 30.9407 48.5372C34.1339 48.5372 37.2286 47.4317 39.699 45.4085C42.1695 43.3854 43.8633 40.5693 44.4926 37.4387L47.8815 38.1176C46.3062 46.0335 39.3213 52.0011 30.9407 52.0011C22.5602 52.0011 15.5752 46.0335 14 38.1176Z" fill="white"/>
<defs>
<filter id="filter0_d_886_11948" x="-4" y="0" width="73" height="73" filterUnits="userSpaceOnUse" color-interpolation-filters="sRGB">
<feFlood flood-opacity="0" result="BackgroundImageFix"/>
<feColorMatrix in="SourceAlpha" type="matrix" values="0 0 0 0 0 0 0 0 0 0 0 0 0 0 0 0 0 0 127 0" result="hardAlpha"/>
<feOffset dy="4"/>
<feGaussianBlur stdDeviation="2"/>
<feComposite in2="hardAlpha" operator="out"/>
<feColorMatrix type="matrix" values="0 0 0 0 0 0 0 0 0 0 0 0 0 0 0 0 0 0 0.25 0"/>
<feBlend mode="normal" in2="BackgroundImageFix" result="effect1_dropShadow_886_11948"/>
<feBlend mode="normal" in="SourceGraphic" in2="effect1_dropShadow_886_11948" result="shape"/>
</filter>
</defs>
</svg>
