<svg width="24" height="24" viewBox="0 0 24 24" fill="none" xmlns="http://www.w3.org/2000/svg">
<path d="M8.07792 0.65791C5.65174 1.49958 3.5594 3.09708 2.10824 5.21578C0.657085 7.33448 -0.0764066 9.8627 0.0155076 12.4291C0.107422 14.9955 1.0199 17.4647 2.6189 19.4742C4.21791 21.4837 6.41917 22.9274 8.89934 23.5933C10.9101 24.1122 13.0167 24.135 15.0382 23.6597C16.8695 23.2484 18.5625 22.3685 19.9516 21.1063C21.3973 19.7524 22.4467 18.0302 22.9869 16.1246C23.5741 14.0524 23.6786 11.8732 23.2923 9.7543H12.001V14.4381H18.5402C18.4095 15.1852 18.1294 15.8982 17.7168 16.5344C17.3041 17.1707 16.7673 17.7172 16.1385 18.1412C15.34 18.6694 14.4399 19.0248 13.4959 19.1846C12.5492 19.3606 11.5781 19.3606 10.6314 19.1846C9.6718 18.9862 8.76408 18.5901 7.96599 18.0217C6.68386 17.1141 5.72116 15.8247 5.21526 14.3376C4.70081 12.8226 4.70081 11.1801 5.21526 9.66514C5.57537 8.6032 6.17068 7.6363 6.95676 6.83662C7.85633 5.90469 8.99521 5.23854 10.2484 4.91126C11.5017 4.58398 12.8209 4.60821 14.0612 4.9813C15.0302 5.27875 15.9163 5.79844 16.6488 6.49895C17.3861 5.76542 18.1222 5.02999 18.857 4.29267C19.2364 3.89619 19.65 3.51867 20.0237 3.1127C18.9055 2.07212 17.593 1.26242 16.1613 0.729999C13.5542 -0.216652 10.7015 -0.242092 8.07792 0.65791Z" fill="white"/>
<path d="M8.0745 0.657856C10.6979 -0.242759 13.5505 -0.217988 16.1579 0.728047C17.5898 1.26409 18.9017 2.07769 20.0184 3.12213C19.639 3.5281 19.2387 3.90751 18.8517 4.3021C18.1156 5.0369 17.3802 5.76916 16.6454 6.49889C15.9128 5.79838 15.0268 5.27869 14.0578 4.98125C12.8179 4.60685 11.4987 4.58121 10.2451 4.90715C8.99157 5.2331 7.852 5.89802 6.95144 6.82898C6.16536 7.62866 5.57005 8.59555 5.20994 9.65749L1.27734 6.61272C2.68498 3.82131 5.1222 1.68611 8.0745 0.657856Z" fill="#E33629"/>
<path d="M0.23523 9.62911C0.446602 8.58155 0.797524 7.56706 1.27861 6.61279L5.21121 9.66516C4.69676 11.1802 4.69676 12.8226 5.21121 14.3376C3.90098 15.3494 2.59011 16.3662 1.27861 17.3881C0.0742656 14.9908 -0.293039 12.2594 0.23523 9.62911Z" fill="#F8BD00"/>
<path d="M12.0008 9.75244H23.2921C23.6784 11.8713 23.5739 14.0505 22.9867 16.1228C22.4465 18.0283 21.3971 19.7506 19.9514 21.1044C18.6823 20.1142 17.4075 19.1315 16.1383 18.1412C16.7675 17.7168 17.3046 17.1697 17.7173 16.5328C18.13 15.8958 18.4098 15.1821 18.54 14.4344H12.0008C11.9989 12.875 12.0008 11.3137 12.0008 9.75244Z" fill="#587DBD"/>
<path d="M1.27734 17.3879C2.58884 16.3761 3.89971 15.3593 5.20994 14.3374C5.71685 15.8251 6.68093 17.1145 7.96447 18.0215C8.76504 18.5873 9.67472 18.9801 10.6355 19.1749C11.5823 19.3509 12.5533 19.3509 13.5001 19.1749C14.444 19.0151 15.3442 18.6597 16.1427 18.1315C17.4118 19.1218 18.6866 20.1045 19.9558 21.0947C18.5669 22.3576 16.8738 23.2382 15.0424 23.6501C13.0209 24.1253 10.9142 24.1025 8.90351 23.5837C7.31321 23.159 5.82777 22.4105 4.54028 21.385C3.17755 20.3031 2.06454 18.9396 1.27734 17.3879Z" fill="#319F43"/>
</svg>
