<svg width="22" height="22" viewBox="0 0 22 22" fill="none" xmlns="http://www.w3.org/2000/svg">
<path d="M19.0455 5.62514H17.1845L12.6185 10.1891C12.7758 10.5899 12.7902 11.0327 12.6595 11.4429C12.5287 11.853 12.2607 12.2057 11.9005 12.4415C11.5403 12.6774 11.1098 12.782 10.6816 12.7377C10.2533 12.6935 9.85332 12.5032 9.54888 12.1988C9.24445 11.8943 9.05412 11.4944 9.00991 11.0661C8.9657 10.6378 9.0703 10.2074 9.30612 9.84719C9.54195 9.48698 9.89461 9.21896 10.3048 9.08819C10.715 8.95742 11.1577 8.97188 11.5585 9.12914L16.1235 4.56414V2.70314C16.1236 2.45412 16.2225 2.21531 16.3985 2.03914L18.1285 0.309143C18.1605 0.276921 18.2007 0.25403 18.2448 0.24293C18.2888 0.231831 18.3351 0.232941 18.3785 0.246143C18.4675 0.272143 18.5335 0.346143 18.5515 0.437143L19.0115 2.73814L21.3115 3.19814C21.4015 3.21614 21.4755 3.28214 21.5015 3.37114C21.5146 3.41438 21.5158 3.46036 21.5049 3.5042C21.494 3.54805 21.4714 3.58811 21.4395 3.62014L19.7085 5.35014C19.5326 5.5259 19.2942 5.62478 19.0455 5.62514Z" fill="#4169E1"/>
<path d="M1.5 10.875C1.5 13.3614 2.48772 15.746 4.24587 17.5041C6.00403 19.2623 8.3886 20.25 10.875 20.25C12.1061 20.25 13.3252 20.0075 14.4627 19.5364C15.6001 19.0652 16.6336 18.3747 17.5041 17.5041C18.3747 16.6336 19.0652 15.6001 19.5364 14.4627C20.0075 13.3252 20.25 12.1061 20.25 10.875C20.25 9.97701 20.124 9.10901 19.889 8.28801C19.8423 8.0995 19.8705 7.90022 19.9678 7.7321C20.065 7.56399 20.2237 7.44015 20.4103 7.38664C20.597 7.33313 20.7972 7.35413 20.9687 7.44521C21.1403 7.5363 21.2698 7.69037 21.33 7.87501C21.604 8.82901 21.75 9.83501 21.75 10.875C21.75 16.881 16.881 21.75 10.875 21.75C4.869 21.75 0 16.881 0 10.875C0 4.86901 4.869 5.28186e-06 10.875 5.28186e-06C11.89 -0.000994718 12.899 0.140005 13.875 0.419005C13.9702 0.4457 14.0591 0.49094 14.1367 0.552125C14.2143 0.613311 14.2791 0.689235 14.3273 0.775532C14.3755 0.86183 14.4061 0.956799 14.4175 1.05498C14.4288 1.15316 14.4207 1.25262 14.3934 1.34764C14.3662 1.44265 14.3205 1.53135 14.2589 1.60864C14.1973 1.68592 14.121 1.75027 14.0345 1.79797C13.9479 1.84568 13.8528 1.87581 13.7545 1.88663C13.6563 1.89744 13.5569 1.88874 13.462 1.86101C12.6207 1.62086 11.7499 1.49936 10.875 1.50001C8.3886 1.50001 6.00403 2.48773 4.24587 4.24588C2.48772 6.00403 1.5 8.3886 1.5 10.875Z" fill="#4169E1"/>
<path d="M5.99876 10.8748C6.00156 11.5371 6.13931 12.1919 6.40361 12.7992C6.66792 13.4065 7.05323 13.9536 7.53601 14.407C8.0188 14.8605 8.58894 15.2107 9.21162 15.4365C9.83429 15.6622 10.4964 15.7586 11.1576 15.7199C11.8188 15.6812 12.4652 15.5081 13.0573 15.2113C13.6494 14.9144 14.1747 14.5 14.6013 13.9933C15.0279 13.4866 15.3467 12.8983 15.5383 12.2643C15.7299 11.6303 15.7903 10.9639 15.7158 10.3058C15.6948 10.1725 15.7102 10.036 15.7605 9.91079C15.8107 9.78557 15.8939 9.67627 16.0012 9.59448C16.1085 9.51269 16.236 9.46145 16.37 9.44619C16.5041 9.43092 16.6398 9.45221 16.7628 9.50779C17.0138 9.61979 17.1828 9.85879 17.2048 10.1328C17.36 11.448 17.1017 12.779 16.4657 13.9406C15.8296 15.1023 14.8475 16.0369 13.6557 16.6146C12.464 17.1924 11.1219 17.3845 9.81596 17.1642C8.51002 16.944 7.30513 16.3224 6.36876 15.3858C5.43266 14.4502 4.81089 13.2465 4.58969 11.9417C4.36849 10.6368 4.55882 9.29545 5.13429 8.10363C5.70975 6.91181 6.64183 5.92861 7.80125 5.29038C8.96067 4.65214 10.29 4.39052 11.6048 4.54179C11.7042 4.55101 11.8007 4.57998 11.8888 4.62701C11.9768 4.67403 12.0546 4.73815 12.1175 4.81563C12.1805 4.8931 12.2273 4.98236 12.2554 5.07817C12.2834 5.17398 12.292 5.27442 12.2806 5.3736C12.2693 5.47278 12.2383 5.5687 12.1895 5.65575C12.1406 5.74279 12.0748 5.8192 11.9961 5.8805C11.9173 5.9418 11.827 5.98676 11.7307 6.01274C11.6343 6.03872 11.5337 6.04519 11.4348 6.03179C10.7518 5.95283 10.0598 6.01919 9.40433 6.22653C8.74882 6.43386 8.14456 6.77747 7.63121 7.23482C7.11787 7.69216 6.70705 8.2529 6.42571 8.88022C6.14437 9.50754 5.99887 10.1873 5.99876 10.8748Z" fill="#4169E1"/>
</svg>
