<svg width="49" height="49" viewBox="0 0 49 49" fill="none" xmlns="http://www.w3.org/2000/svg">
<rect width="49" height="49" rx="24.5" fill="white"/>
<path d="M33.2773 23.0712C33.2786 23.551 33.2793 24.0615 33.2793 24.6025C33.2793 29.174 33.2793 31.4607 31.8593 32.8808C30.4392 34.3008 28.1535 34.3008 23.5811 34.3008C19.0096 34.3008 16.7229 34.3008 15.3028 32.8808C13.8828 31.4607 13.8828 29.175 13.8828 24.6025C13.8828 20.0311 13.8828 17.7444 15.3028 16.3243C16.7229 14.9043 19.0086 14.9043 23.5811 14.9043C24.1221 14.9043 24.6326 14.905 25.1124 14.9063" stroke="#262525" stroke-width="1.5313" stroke-linecap="round" stroke-linejoin="round"/>
<path d="M16.4336 33.7907C20.8968 28.4567 25.9011 21.4219 33.2759 26.1771M30.7257 13.8838L30.9891 14.5953C31.3342 15.5284 31.5067 15.9949 31.8467 16.3349C32.1876 16.6759 32.6542 16.8484 33.5872 17.1934L34.2988 17.4568L33.5872 17.7202C32.6542 18.0653 32.1876 18.2378 31.8477 18.5777C31.5067 18.9187 31.3342 19.3852 30.9891 20.3183L30.7257 21.0299L30.4624 20.3183C30.1173 19.3852 29.9448 18.9187 29.6048 18.5788C29.2639 18.2378 28.7973 18.0653 27.8643 17.7202L27.1527 17.4568L27.8643 17.1934C28.7973 16.8484 29.2639 16.6759 29.6038 16.3359C29.9448 15.9949 30.1173 15.5284 30.4624 14.5953L30.7257 13.8838Z" stroke="#262525" stroke-width="1.5313" stroke-linecap="round" stroke-linejoin="round"/>
</svg>
