<svg width="40" height="13" viewBox="0 0 40 13" fill="none" xmlns="http://www.w3.org/2000/svg">
<path d="M20.2884 4.0498C20.266 5.8145 21.8611 6.79922 23.0626 7.38474C24.2971 7.98544 24.7118 8.37069 24.7069 8.90794C24.6977 9.73007 23.7222 10.0929 22.8093 10.107C21.2167 10.1317 20.2907 9.67705 19.5545 9.33318L18.9808 12.0178C19.7194 12.3581 21.0871 12.6549 22.5053 12.668C25.8344 12.668 28.0124 11.0246 28.0242 8.47673C28.0372 5.24308 23.5515 5.06409 23.5821 3.61874C23.5927 3.18048 24.0109 2.71279 24.9272 2.59388C25.3808 2.53381 26.633 2.48784 28.0526 3.14155L28.6097 0.544152C27.8463 0.266177 26.8651 0 25.6435 0C22.5101 0 20.3062 1.66571 20.2884 4.0498ZM33.9636 0.223729C33.3557 0.223729 32.8434 0.578324 32.6148 1.12248L27.8593 12.4772H31.186L31.848 10.6477H35.9131L36.2971 12.4772H39.2292L36.6706 0.223729H33.9636ZM34.429 3.53385L35.389 8.13516H32.7598L34.429 3.53385ZM16.255 0.223882L13.6328 12.477H16.8028L19.4238 0.223576L16.255 0.223882ZM11.5654 0.223882L8.26587 8.56392L6.93116 1.47248C6.77455 0.680841 6.15607 0.223729 5.46926 0.223729H0.0755469L0 0.57955C1.10731 0.819829 2.3654 1.20737 3.12761 1.62204C3.59407 1.87534 3.72708 2.09677 3.88032 2.69869L6.40831 12.4772H9.75827L14.8942 0.223729L11.5654 0.223882Z" fill="url(#paint0_linear_694_7368)"/>
<defs>
<linearGradient id="paint0_linear_694_7368" x1="1803.52" y1="38.0799" x2="1840.19" y2="-1262.94" gradientUnits="userSpaceOnUse">
<stop stop-color="#222357"/>
<stop offset="1" stop-color="#254AA5"/>
</linearGradient>
</defs>
</svg>
