<svg width="18" height="14" viewBox="0 0 18 14" fill="none" xmlns="http://www.w3.org/2000/svg">
<path d="M3.15162 13.4215V12.5288C3.15162 12.1865 2.94327 11.9633 2.58613 11.9633C2.40759 11.9633 2.21415 12.0229 2.08021 12.2163C1.9761 12.0526 1.82732 11.9633 1.60412 11.9633C1.45527 11.9633 1.30656 12.0079 1.18747 12.1716V11.9931H0.875V13.4215H1.18747V12.6329C1.18747 12.38 1.3214 12.2609 1.52976 12.2609C1.73799 12.2609 1.84223 12.3948 1.84223 12.6329V13.4215H2.1547V12.6329C2.1547 12.38 2.30341 12.2609 2.49686 12.2609C2.70522 12.2609 2.80933 12.3948 2.80933 12.6329V13.4215H3.15162ZM7.77909 11.9931H7.27324V11.5616H6.96077V11.9931H6.67806V12.2757H6.96071V12.9305C6.96071 13.2579 7.09464 13.4513 7.45178 13.4513C7.58571 13.4513 7.73443 13.4067 7.83867 13.3472L7.74934 13.0793C7.66007 13.1388 7.55596 13.1537 7.48153 13.1537C7.33275 13.1537 7.27324 13.0644 7.27324 12.9156V12.2757H7.77909V11.9931ZM10.4277 11.9633C10.2492 11.9633 10.1301 12.0526 10.0557 12.1716V11.9931H9.74325V13.4215H10.0557V12.618C10.0557 12.38 10.1598 12.2461 10.3533 12.2461C10.4128 12.2461 10.4872 12.261 10.5467 12.2758L10.636 11.9783C10.5765 11.9633 10.4872 11.9633 10.4277 11.9633M6.4251 12.1122C6.27625 12.008 6.06796 11.9634 5.84476 11.9634C5.48769 11.9634 5.24965 12.1419 5.24965 12.4247C5.24965 12.6628 5.42818 12.7966 5.74065 12.8413L5.88943 12.8562C6.05312 12.8859 6.14239 12.9306 6.14239 13.005C6.14239 13.1091 6.02336 13.1835 5.81501 13.1835C5.60665 13.1835 5.44302 13.1091 5.33884 13.0348L5.19007 13.2728C5.35376 13.3918 5.57696 13.4513 5.80009 13.4513C6.21674 13.4513 6.45486 13.258 6.45486 12.9901C6.45486 12.7371 6.26141 12.6032 5.96378 12.5586L5.81501 12.5437C5.68107 12.5288 5.57696 12.4991 5.57696 12.4098C5.57696 12.3056 5.68107 12.2461 5.84476 12.2461C6.02336 12.2461 6.2019 12.3205 6.29117 12.3651L6.4251 12.1122ZM14.7279 11.9634C14.5493 11.9634 14.4303 12.0527 14.3559 12.1717V11.9932H14.0434V13.4216H14.3559V12.6181C14.3559 12.3801 14.46 12.2461 14.6534 12.2461C14.713 12.2461 14.7874 12.261 14.8469 12.2759L14.9362 11.9783C14.8767 11.9634 14.7874 11.9634 14.7279 11.9634ZM10.7402 12.7074C10.7402 13.1389 11.0377 13.4513 11.499 13.4513C11.7073 13.4513 11.8561 13.4067 12.0049 13.2877L11.8561 13.0348C11.7371 13.124 11.6181 13.1686 11.4841 13.1686C11.2312 13.1686 11.0526 12.9901 11.0526 12.7074C11.0526 12.4396 11.2312 12.261 11.4841 12.2461C11.6181 12.2461 11.7371 12.2907 11.8561 12.3801L12.0049 12.1271C11.8561 12.008 11.7073 11.9634 11.499 11.9634C11.0377 11.9634 10.7402 12.2759 10.7402 12.7074ZM13.6268 12.7074V11.9932H13.3144V12.1717C13.2102 12.0378 13.0614 11.9634 12.8679 11.9634C12.4662 11.9634 12.1537 12.2759 12.1537 12.7074C12.1537 13.1389 12.4662 13.4513 12.8679 13.4513C13.0762 13.4513 13.2251 13.377 13.3144 13.243V13.4216H13.6268V12.7074ZM12.4811 12.7074C12.4811 12.4544 12.6447 12.2461 12.9125 12.2461C13.1655 12.2461 13.3441 12.4396 13.3441 12.7074C13.3441 12.9603 13.1655 13.1686 12.9125 13.1686C12.6447 13.1537 12.4811 12.9603 12.4811 12.7074ZM8.74633 11.9634C8.32968 11.9634 8.03205 12.261 8.03205 12.7074C8.03205 13.1538 8.32961 13.4513 8.76117 13.4513C8.96946 13.4513 9.17782 13.3918 9.34151 13.258L9.19266 13.0348C9.07364 13.124 8.92486 13.1835 8.77608 13.1835C8.58263 13.1835 8.38919 13.0943 8.34452 12.8412H9.40102V12.7223C9.41593 12.261 9.14813 11.9634 8.74633 11.9634ZM8.74626 12.2312C8.93964 12.2312 9.07364 12.3503 9.10333 12.5735H8.35936C8.38912 12.3801 8.52306 12.2312 8.74626 12.2312ZM16.4985 12.7074V11.4277H16.186V12.1717C16.0818 12.0378 15.9331 11.9634 15.7396 11.9634C15.3379 11.9634 15.0254 12.2759 15.0254 12.7074C15.0254 13.1389 15.3379 13.4513 15.7396 13.4513C15.948 13.4513 16.0968 13.377 16.186 13.243V13.4216H16.4985V12.7074ZM15.3528 12.7074C15.3528 12.4544 15.5164 12.2461 15.7843 12.2461C16.0372 12.2461 16.2158 12.4396 16.2158 12.7074C16.2158 12.9603 16.0372 13.1686 15.7843 13.1686C15.5164 13.1537 15.3528 12.9603 15.3528 12.7074ZM4.90728 12.7074V11.9932H4.59481V12.1717C4.49064 12.0378 4.34186 11.9634 4.14841 11.9634C3.74667 11.9634 3.4342 12.2759 3.4342 12.7074C3.4342 13.1389 3.74667 13.4513 4.14841 13.4513C4.35677 13.4513 4.50555 13.377 4.59481 13.243V13.4216H4.90728V12.7074ZM3.74667 12.7074C3.74667 12.4544 3.91036 12.2461 4.17817 12.2461C4.43112 12.2461 4.60973 12.4396 4.60973 12.7074C4.60973 12.9603 4.43112 13.1686 4.17817 13.1686C3.91036 13.1537 3.74667 12.9603 3.74667 12.7074Z" fill="black"/>
<path d="M6.32422 1.14551H11.0113V9.56735H6.32422V1.14551Z" fill="#FF5F00"/>
<path d="M6.62145 5.35666C6.62145 3.64553 7.42492 2.12778 8.65989 1.1457C7.7523 0.431493 6.6066 0 5.35672 0C2.39558 0 0 2.39558 0 5.35666C0 8.31773 2.39558 10.7133 5.35665 10.7133C6.60653 10.7133 7.75223 10.2818 8.65989 9.56754C7.42492 8.60038 6.62145 7.06778 6.62145 5.35666Z" fill="#EB001B"/>
<path d="M17.3318 5.35666C17.3318 8.31766 14.9362 10.7133 11.9751 10.7133C10.7252 10.7133 9.57953 10.2818 8.67188 9.56754C9.92175 8.58553 10.7104 7.06778 10.7104 5.35666C10.7104 3.64553 9.90684 2.12778 8.67188 1.1457C9.57946 0.431493 10.7252 0 11.9751 0C14.9362 0 17.3318 2.41049 17.3318 5.35666Z" fill="#F79E1B"/>
</svg>
