<svg width="38" height="25" viewBox="0 0 38 25" fill="none" xmlns="http://www.w3.org/2000/svg">
<path d="M20.4434 5.28856L19.714 4.55917C16.6732 1.5184 15.1528 -0.00198549 13.5052 1.94592e-06C12.9668 0.000140655 12.434 0.109677 11.9391 0.321966C10.4247 0.973844 9.62974 2.97122 8.0398 6.96794L7.92453 7.25612C7.47338 8.38896 7.2488 8.95538 6.8851 9.41249C6.6105 9.75896 6.28002 10.0572 5.90728 10.2949C5.41638 10.6089 4.83009 10.7759 3.6575 11.1098C1.839 11.6245 0.928758 11.8829 0.525309 12.4334C0.225713 12.842 0.0934832 13.3496 0.155646 13.8524C0.241106 14.5301 0.908883 15.1999 2.24643 16.5354L8.46709 22.7561C9.80464 24.0937 10.4724 24.7634 11.1501 24.8469C11.6536 24.9096 12.162 24.7773 12.5711 24.4772C13.1217 24.0738 13.378 23.1655 13.8948 21.345C14.2287 20.1725 14.3936 19.5862 14.7096 19.0953C14.9467 18.7227 15.2443 18.3922 15.5901 18.1174C16.0472 17.7557 16.6136 17.5292 17.7464 17.078L18.0366 16.9627C22.0313 15.3728 24.0287 14.5778 24.6806 13.0634C24.8929 12.5686 25.0024 12.0358 25.0025 11.4973C25.0025 9.84773 23.4841 8.32933 20.4434 5.28856Z" stroke="#262525" stroke-width="2.98115"/>
<path d="M0 25.0003L5.35415 19.6462M37.0716 4.84375H27.1344M37.0716 13.7872H29.1219M37.0716 22.7306H19.1847" stroke="#262525" stroke-width="2.98115" stroke-linecap="round"/>
</svg>
