<svg width="23" height="26" viewBox="0 0 23 26" fill="none" xmlns="http://www.w3.org/2000/svg">
<path d="M6.36733 15.0034L8.60189 16.5057L10.9 15.3386C11.056 15.2557 11.2313 15.2143 11.4258 15.2143C11.6203 15.2143 11.7951 15.2557 11.9501 15.3386L14.2757 16.5057L16.4943 15.0193L15.021 12.0553C14.9478 11.907 14.8371 11.7867 14.6888 11.6942C14.5405 11.6018 14.383 11.5556 14.2164 11.5556H8.60044C8.43385 11.5556 8.28074 11.6018 8.14111 11.6942C8.00244 11.7867 7.89652 11.907 7.82333 12.0553L6.36733 15.0034ZM1.65266 24.5556H21.1888L17.127 16.341L14.9271 17.8114C14.748 17.9366 14.5597 18.0055 14.3623 18.018C14.1649 18.0305 13.9646 17.9857 13.7614 17.8837L11.4388 16.7079L9.11611 17.8562C8.91292 17.9573 8.71263 18.0007 8.51522 17.9862C8.31781 17.9718 8.12955 17.9015 7.95044 17.7753L5.70433 16.3063L1.65266 24.5556ZM1.19478 26C0.751812 26 0.414776 25.8175 0.183664 25.4526C-0.0474467 25.0876 -0.0604466 24.7111 0.144664 24.323L6.50022 11.4024C6.70341 11.0134 6.99374 10.7009 7.37122 10.465C7.74774 10.2291 8.157 10.1111 8.599 10.1111H10.7166V1.16711C10.7166 0.832 10.8273 0.553704 11.0488 0.332222C11.2703 0.110741 11.5486 0 11.8837 0H18.0052C18.2151 0 18.3784 0.0914816 18.4949 0.274445C18.6104 0.456445 18.6177 0.649037 18.5166 0.852222L17.972 1.89656C17.9238 1.98033 17.8998 2.07037 17.8998 2.16667C17.8998 2.26296 17.9238 2.35252 17.972 2.43533L18.5166 3.48111C18.6186 3.6843 18.6114 3.87689 18.4949 4.05889C18.3784 4.24089 18.2151 4.33237 18.0052 4.33333H12.161V10.1111H14.1616C14.6045 10.1111 15.008 10.2276 15.372 10.4607C15.737 10.6937 16.0239 11.0047 16.2329 11.3938L22.6968 24.3216C22.9009 24.7106 22.8874 25.0876 22.6563 25.4526C22.4262 25.8175 22.0896 26 21.6467 26H1.19478Z" fill="#494646"/>
</svg>
