<svg width="17" height="20" viewBox="0 0 17 20" fill="none" xmlns="http://www.w3.org/2000/svg">
<path d="M2.77691 4.44444C4.00421 4.44444 4.99913 3.44952 4.99913 2.22222C4.99913 0.994923 4.00421 0 2.77691 0C1.54961 0 0.554688 0.994923 0.554688 2.22222C0.554688 3.44952 1.54961 4.44444 2.77691 4.44444Z" stroke="#7655FB" stroke-width="2.22222" stroke-linecap="round" stroke-linejoin="round"/>
<path d="M12.7769 4.44444C14.0042 4.44444 14.9991 3.44952 14.9991 2.22222C14.9991 0.994923 14.0042 0 12.7769 0C11.5496 0 10.5547 0.994923 10.5547 2.22222C10.5547 3.44952 11.5496 4.44444 12.7769 4.44444Z" stroke="#7655FB" stroke-width="2.22222" stroke-linecap="round" stroke-linejoin="round"/>
<path d="M0 7.77783H5.55556L4.44444 20.0001H1.11111L0 7.77783ZM10 7.77783H15.5556L16.6667 13.8889H15L14.4444 20.0001H11.1111L10.5556 13.8889H8.88889L10 7.77783Z" stroke="#7655FB" stroke-width="2.22222" stroke-linecap="round" stroke-linejoin="round"/>
</svg>
