<svg width="23" height="21" viewBox="0 0 23 21" fill="none" xmlns="http://www.w3.org/2000/svg">
<path d="M11.1869 19.219C12.7406 19.219 14.0615 18.6754 15.1495 17.5882C16.2375 16.501 16.7811 15.1801 16.7803 13.6256C16.7795 12.071 16.2359 10.7506 15.1495 9.6642C14.0631 8.57783 12.7422 8.03382 11.1869 8.03216C9.63147 8.0305 8.311 8.57452 7.22546 9.6642C6.13993 10.7539 5.59591 12.0743 5.59343 13.6256C5.59094 15.1768 6.13495 16.4977 7.22546 17.5882C8.31598 18.6787 9.63644 19.2223 11.1869 19.219ZM7.5996 7.82707C7.99736 7.56687 8.42122 7.35764 8.87118 7.19936C9.32196 7.04109 9.7856 6.92508 10.2621 6.85133L7.43304 1.24298H4.32558L7.5996 7.82707ZM14.7741 7.82707L18.078 1.24298H14.9407L12.2272 6.62137L12.364 6.89483C12.7973 6.9777 13.2166 7.09371 13.6219 7.24287C14.0262 7.39202 14.4107 7.58676 14.7753 7.82707M5.25534 17.8952C5.26942 17.756 5.30174 17.6027 5.35229 17.4353C5.40201 17.2663 5.47493 17.0881 5.57105 16.9009C5.18821 16.2818 4.91186 15.6135 4.74198 14.8959C4.57211 14.1783 4.52819 13.4396 4.61023 12.6797C4.61023 12.0582 4.71795 11.4682 4.9334 10.9097C5.14802 10.352 5.44634 9.85023 5.82835 9.40442C5.53252 9.45496 5.27191 9.56103 5.04651 9.72262C4.82278 9.88504 4.66285 10.0785 4.56672 10.3031C3.64277 10.5277 2.92225 11.0476 2.40517 11.863C1.88892 12.6776 1.73148 13.5808 1.93284 14.5727C1.93284 15.4967 2.2556 16.2814 2.90112 16.927C3.54582 17.5716 4.33056 17.8952 5.25534 17.8952ZM17.1209 17.894C18.2462 17.8277 19.1958 17.3869 19.9698 16.5715C20.7446 15.7569 21.132 14.7749 21.132 13.6256C21.132 12.4762 20.7446 11.4943 19.9698 10.6797C19.195 9.86515 18.2453 9.42389 17.1209 9.35594C17.0256 9.35594 16.9303 9.36008 16.835 9.36837C16.7388 9.37666 16.6427 9.38867 16.5466 9.40442C17.0106 9.98945 17.3728 10.6408 17.633 11.3584C17.894 12.076 18.0245 12.8317 18.0245 13.6256C18.0245 14.4194 17.8944 15.1752 17.6342 15.8928C17.3732 16.6104 17.0111 17.2617 16.5478 17.8468C16.6431 17.8633 16.7384 17.8753 16.8337 17.8828C16.9299 17.8911 17.0256 17.894 17.1209 17.894ZM11.1869 20.462C10.3905 20.462 9.6381 20.3389 8.9296 20.0928C8.2211 19.8467 7.57764 19.4925 6.99924 19.0301C6.78048 19.1038 6.55011 19.1536 6.30814 19.1792C6.06617 19.2049 5.81758 19.2182 5.56235 19.219C4.02768 19.219 2.71716 18.6758 1.63079 17.5895C0.544427 16.5031 0.000828656 15.1922 0 13.6567C0 12.1411 0.529097 10.8446 1.58729 9.76737C2.64548 8.69011 3.92741 8.13491 5.43308 8.10177C5.60876 8.10177 5.77615 8.11378 5.93525 8.13781C6.09435 8.16102 6.25345 8.18878 6.41255 8.2211L2.29455 0.00124289H8.22358L11.1869 5.92903L14.1514 0H20.0792L16.0146 8.13533C16.1588 8.10301 16.3067 8.07898 16.4583 8.06324C16.6092 8.04666 16.7645 8.03838 16.9245 8.03838C18.4459 8.07732 19.7344 8.63542 20.7901 9.71268C21.8459 10.7899 22.3737 12.0942 22.3737 13.6256C22.3737 15.181 21.8305 16.5023 20.7442 17.5895C19.6578 18.6767 18.3365 19.2198 16.7803 19.219C16.53 19.219 16.2868 19.2058 16.0506 19.1792C15.8145 19.1527 15.5866 19.103 15.367 19.0301C14.7894 19.4767 14.1472 19.8268 13.4404 20.0804C12.7335 20.334 11.9824 20.4612 11.1869 20.462ZM9.24656 16.4695L9.97246 14.0718L8.03216 12.6884H10.4299L11.1869 10.1601L11.9451 12.6884H14.3428L12.4012 14.0731L13.1284 16.4708L11.1869 14.9929L9.24656 16.4695Z" fill="#7655FB"/>
</svg>
