<svg width="39" height="31" viewBox="0 0 39 31" fill="none" xmlns="http://www.w3.org/2000/svg">
<path d="M1.582 11.9802L0.78988 12.7723L0 11.9802L0.78988 11.1881L1.582 11.9802ZM38.5027 29.8812C38.5027 30.1779 38.3849 30.4625 38.1751 30.6723C37.9652 30.8821 37.6807 31 37.3839 31C37.0872 31 36.8026 30.8821 36.5928 30.6723C36.383 30.4625 36.2651 30.1779 36.2651 29.8812H38.5027ZM11.978 23.9604L0.78988 12.7723L2.37412 11.1881L13.5622 22.3762L11.978 23.9604ZM0.78988 11.1881L11.978 0L13.5622 1.58424L2.37412 12.7723L0.78988 11.1881ZM1.582 10.8614H23.9582V13.099H1.582V10.8614ZM38.5027 25.4059V29.8812H36.2651V25.4059H38.5027ZM23.9582 10.8614C27.8157 10.8614 31.5151 12.3938 34.2427 15.1214C36.9704 17.849 38.5027 21.5485 38.5027 25.4059H36.2651C36.2651 22.142 34.9685 19.0116 32.6605 16.7036C30.3525 14.3956 27.2222 13.099 23.9582 13.099V10.8614Z" fill="#262525"/>
</svg>
