<svg width="26" height="26" viewBox="0 0 26 26" fill="none" xmlns="http://www.w3.org/2000/svg">
<path d="M6.5 15.6004L9.4809 12.6195C9.72469 12.3758 10.0553 12.2389 10.4 12.2389C10.7447 12.2389 11.0753 12.3758 11.3191 12.6195L13.3809 14.6813C13.6247 14.925 13.9553 15.0619 14.3 15.0619C14.6447 15.0619 14.9753 14.925 15.2191 14.6813L19.5 10.4004M16.25 10.4004H19.5V13.6504" stroke="#494646" stroke-width="1.95" stroke-linecap="round" stroke-linejoin="round"/>
<path d="M26 13C26 19.1282 26 22.1923 24.0955 24.0955C22.1936 26 19.1282 26 13 26C6.8718 26 3.8077 26 1.9032 24.0955C0 22.1936 0 19.1282 0 13C0 6.8718 0 3.8077 1.9032 1.9032C3.809 0 6.8718 0 13 0C19.1282 0 22.1923 0 24.0955 1.9032C25.3617 3.1694 25.7855 4.9491 25.9285 7.8" stroke="#494646" stroke-width="1.95" stroke-linecap="round"/>
</svg>
