<svg width="19" height="19" viewBox="0 0 19 19" fill="none" xmlns="http://www.w3.org/2000/svg">
<path d="M16.8889 19H2.11111C1.55121 19 1.01424 18.7776 0.61833 18.3817C0.22242 17.9858 0 17.4488 0 16.8889V2.11111C0 1.55121 0.22242 1.01424 0.61833 0.61833C1.01424 0.22242 1.55121 0 2.11111 0H16.8889C17.4488 0 17.9858 0.22242 18.3817 0.61833C18.7776 1.01424 19 1.55121 19 2.11111V16.8889C19 17.4488 18.7776 17.9858 18.3817 18.3817C17.9858 18.7776 17.4488 19 16.8889 19Z" stroke="#4169E1" stroke-width="1.58333" stroke-linecap="round" stroke-linejoin="round"/>
<path d="M4.48785 7.38889L2.64062 9.5L4.48785 11.6111M6.86285 19V0" stroke="#4169E1" stroke-width="1.58333" stroke-linecap="round" stroke-linejoin="round"/>
</svg>
