<svg width="88" height="88" viewBox="0 0 88 88" fill="none" xmlns="http://www.w3.org/2000/svg">
<circle cx="44" cy="44" r="44" fill="#C2DAF1"/>
<path d="M20.0714 40.1429C23.7748 40.1429 26.7857 37.1319 26.7857 33.4286C26.7857 29.7252 23.7748 26.7143 20.0714 26.7143C16.3681 26.7143 13.3571 29.7252 13.3571 33.4286C13.3571 37.1319 16.3681 40.1429 20.0714 40.1429ZM67.0714 40.1429C70.7748 40.1429 73.7857 37.1319 73.7857 33.4286C73.7857 29.7252 70.7748 26.7143 67.0714 26.7143C63.3681 26.7143 60.3571 29.7252 60.3571 33.4286C60.3571 37.1319 63.3681 40.1429 67.0714 40.1429ZM70.4286 43.5H63.7143C61.8679 43.5 60.1998 44.2449 58.9828 45.4513C63.2107 47.7699 66.2112 51.9558 66.8616 56.9286H73.7857C75.6426 56.9286 77.1429 55.4283 77.1429 53.5714V50.2143C77.1429 46.5109 74.1319 43.5 70.4286 43.5ZM43.5714 43.5C50.0654 43.5 55.3214 38.244 55.3214 31.75C55.3214 25.256 50.0654 20 43.5714 20C37.0775 20 31.8214 25.256 31.8214 31.75C31.8214 38.244 37.0775 43.5 43.5714 43.5ZM51.6286 46.8571H50.7578C48.5757 47.9062 46.1522 48.5357 43.5714 48.5357C40.9906 48.5357 38.5777 47.9062 36.385 46.8571H35.5143C28.842 46.8571 23.4286 52.2705 23.4286 58.9429V61.9643C23.4286 64.7444 25.6842 67 28.4643 67H58.6786C61.4587 67 63.7143 64.7444 63.7143 61.9643V58.9429C63.7143 52.2705 58.3009 46.8571 51.6286 46.8571ZM28.16 45.4513C26.9431 44.2449 25.275 43.5 23.4286 43.5H16.7143C13.0109 43.5 10 46.5109 10 50.2143V53.5714C10 55.4283 11.5002 56.9286 13.3571 56.9286H20.2708C20.9317 51.9558 23.9321 47.7699 28.16 45.4513Z" fill="white"/>
</svg>
