<svg width="20" height="20" viewBox="0 0 20 20" fill="none" xmlns="http://www.w3.org/2000/svg">
<path d="M19.1943 6.81635C20.3845 5.62617 19.8418 4.23603 19.1943 3.56L16.3379 0.703548C15.1382 -0.486641 13.7575 0.0560851 13.0815 0.703548L11.4629 2.33172H8.99678C7.18769 2.33172 6.14033 3.28388 5.60712 4.37885L1.37957 8.6064V12.415L0.703548 13.0815C-0.486641 14.2812 0.0560851 15.6618 0.703548 16.3379L3.56 19.1943C4.07416 19.7085 4.62641 19.8989 5.15009 19.8989C5.82612 19.8989 6.44502 19.5657 6.81635 19.1943L9.38716 16.614H12.8054C14.424 16.614 15.2429 15.6047 15.5381 14.6145C16.614 14.3288 17.2043 13.51 17.4424 12.7102C18.9182 12.3293 19.4704 10.9296 19.4704 9.94893V7.09248H18.9087L19.1943 6.81635ZM17.5661 9.94893C17.5661 10.3774 17.3852 10.9011 16.614 10.9011H15.6618V11.8532C15.6618 12.2817 15.4809 12.8054 14.7097 12.8054H13.7575V13.7575C13.7575 14.186 13.5766 14.7097 12.8054 14.7097H8.6064L5.48334 17.8327C5.18818 18.1089 5.01679 17.947 4.91205 17.8423L2.06512 15.0048C1.789 14.7097 1.95086 14.5383 2.0556 14.4336L3.28388 13.1958V9.38716L5.18818 7.48286V8.99678C5.18818 10.1489 5.9499 11.8532 8.04463 11.8532C10.1394 11.8532 10.9011 10.1489 10.9011 8.99678H17.5661V9.94893ZM17.8423 5.4643L16.2236 7.09248H8.99678V8.99678C8.99678 9.42525 8.81587 9.94893 8.04463 9.94893C7.27339 9.94893 7.09248 9.42525 7.09248 8.99678V6.14033C7.09248 5.70234 7.25434 4.23603 8.99678 4.23603H12.2436L14.4145 2.06512C14.7097 1.789 14.8811 1.95086 14.9858 2.0556L17.8327 4.89301C18.1089 5.18818 17.947 5.35956 17.8423 5.4643Z" fill="#7655FB"/>
</svg>
