<svg width="60" height="60" viewBox="0 0 60 60" fill="none" xmlns="http://www.w3.org/2000/svg">
<rect width="60" height="60" rx="30" fill="white"/>
<path d="M40.7483 28.2503C40.75 28.8379 40.7508 29.4629 40.7508 30.1254C40.7508 35.7231 40.7508 38.5232 39.012 40.262C37.2732 42.0008 34.4743 42.0008 28.8754 42.0008C23.2777 42.0008 20.4776 42.0008 18.7388 40.262C17 38.5232 17 35.7243 17 30.1254C17 24.5277 17 21.7276 18.7388 19.9888C20.4776 18.25 23.2765 18.25 28.8754 18.25C29.5379 18.25 30.1629 18.2508 30.7505 18.2525" stroke="#262525" stroke-width="1.87506" stroke-linecap="round" stroke-linejoin="round"/>
<path d="M20.125 41.3758C25.5902 34.8444 31.7179 26.2303 40.7482 32.053M37.6256 17L37.9481 17.8713C38.3706 19.0138 38.5819 19.5851 38.9981 20.0014C39.4157 20.4189 39.9869 20.6301 41.1295 21.0526L42.0007 21.3751L41.1295 21.6977C39.9869 22.1202 39.4157 22.3314 38.9994 22.7477C38.5819 23.1652 38.3706 23.7365 37.9481 24.879L37.6256 25.7503L37.3031 24.879C36.8806 23.7365 36.6693 23.1652 36.253 22.7489C35.8355 22.3314 35.2643 22.1202 34.1217 21.6977L33.2504 21.3751L34.1217 21.0526C35.2643 20.6301 35.8355 20.4189 36.2518 20.0026C36.6693 19.5851 36.8806 19.0138 37.3031 17.8713L37.6256 17Z" stroke="#262525" stroke-width="1.87506" stroke-linecap="round" stroke-linejoin="round"/>
</svg>
