<svg width="20" height="20" viewBox="0 0 20 20" fill="none" xmlns="http://www.w3.org/2000/svg">
<path d="M16.8374 6.48102L16.6137 6.99556C16.5788 7.07935 16.5198 7.15092 16.4443 7.20127C16.3687 7.25161 16.28 7.27847 16.1892 7.27847C16.0984 7.27847 16.0096 7.25161 15.9341 7.20127C15.8585 7.15092 15.7996 7.07935 15.7646 6.99556L15.541 6.48102C15.1478 5.57076 14.4277 4.84093 13.5228 4.43555L12.8328 4.12737C12.7491 4.08886 12.6782 4.02716 12.6285 3.94957C12.5787 3.87199 12.5523 3.78178 12.5523 3.68964C12.5523 3.59749 12.5787 3.50728 12.6285 3.4297C12.6782 3.35212 12.7491 3.29041 12.8328 3.25191L13.4846 2.96191C14.4123 2.54498 15.1447 1.78816 15.531 0.847351L15.7619 0.291893C15.7957 0.205851 15.8546 0.131982 15.931 0.0799151C16.0074 0.0278485 16.0976 0 16.1901 0C16.2825 0 16.3728 0.0278485 16.4492 0.0799151C16.5256 0.131982 16.5845 0.205851 16.6183 0.291893L16.8483 0.846442C17.2342 1.78742 17.9663 2.54457 18.8937 2.96191L19.5465 3.25282C19.6299 3.29143 19.7006 3.35313 19.7501 3.43061C19.7996 3.5081 19.8259 3.59813 19.8259 3.69009C19.8259 3.78205 19.7996 3.87209 19.7501 3.94957C19.7006 4.02706 19.6299 4.08875 19.5465 4.12737L18.8556 4.43464C17.9508 4.84043 17.2311 5.57058 16.8383 6.48102M4.37093 5.45556C4.37097 4.63989 4.59049 3.83927 5.00647 3.13766C5.42244 2.43604 6.01954 1.85928 6.73515 1.46786C7.45076 1.07645 8.25851 0.884804 9.07368 0.913026C9.88885 0.941247 10.6814 1.1883 11.3682 1.62826L10.3864 3.15736C9.97421 2.89359 9.49862 2.74558 9.00952 2.72887C8.52042 2.71217 8.03584 2.82737 7.6066 3.0624C7.17735 3.29743 6.81925 3.64363 6.56985 4.0647C6.32045 4.48576 6.18895 4.96617 6.18912 5.45556V10.9101C6.18912 11.6335 6.47646 12.3271 6.98793 12.8386C7.49939 13.3501 8.19309 13.6374 8.91641 13.6374C9.63973 13.6374 10.3334 13.3501 10.8449 12.8386C11.3564 12.3271 11.6437 11.6335 11.6437 10.9101V6.36465H13.4619V10.9101C13.4619 12.1157 12.983 13.2718 12.1305 14.1243C11.2781 14.9767 10.1219 15.4556 8.91641 15.4556C7.71087 15.4556 6.55471 14.9767 5.70227 14.1243C4.84983 13.2718 4.37093 12.1157 4.37093 10.9101V5.45556ZM0 12.6938L1.78365 12.3365C2.11491 13.9842 3.00641 15.4664 4.30667 16.5312C5.60693 17.5961 7.23575 18.178 8.91641 18.178C10.5971 18.178 12.2259 17.5961 13.5262 16.5312C14.8264 15.4664 15.7179 13.9842 16.0492 12.3365L17.8328 12.6938C17.0037 16.8602 13.3273 20.0011 8.91641 20.0011C4.50548 20.0011 0.829095 16.8602 0 12.6938Z" fill="#7655FB"/>
</svg>
