<svg width="26" height="26" viewBox="0 0 26 26" fill="none" xmlns="http://www.w3.org/2000/svg">
<path d="M12.75 0C13.0398 0 13.3178 0.11514 13.5228 0.32009C13.7277 0.525041 13.8429 0.803013 13.8429 1.09286C13.8429 1.3827 13.7277 1.66067 13.5228 1.86562C13.3178 2.07057 13.0398 2.18571 12.75 2.18571C9.94818 2.18571 7.26111 3.29873 5.27992 5.27992C3.29873 7.26111 2.18571 9.94818 2.18571 12.75C2.18571 15.5518 3.29873 18.2389 5.27992 20.2201C7.26111 22.2013 9.94818 23.3143 12.75 23.3143C13.0398 23.3143 13.3178 23.4294 13.5228 23.6344C13.7277 23.8393 13.8429 24.1173 13.8429 24.4071C13.8429 24.697 13.7277 24.975 13.5228 25.1799C13.3178 25.3849 13.0398 25.5 12.75 25.5C9.36849 25.5 6.12548 24.1567 3.73439 21.7656C1.3433 19.3745 0 16.1315 0 12.75C0 9.36849 1.3433 6.12548 3.73439 3.73439C6.12548 1.3433 9.36849 0 12.75 0Z" fill="#4169E1"/>
<path d="M19.2628 9.15087C19.0697 8.9437 18.9646 8.66969 18.9696 8.38657C18.9746 8.10344 19.0893 7.83331 19.2895 7.63308C19.4898 7.43285 19.7599 7.31815 20.043 7.31316C20.3262 7.30816 20.6002 7.41326 20.8073 7.6063L25.1788 11.9777C25.3834 12.1826 25.4984 12.4604 25.4984 12.75C25.4984 13.0396 25.3834 13.3174 25.1788 13.5223L20.8073 17.8937C20.7073 18.0011 20.5866 18.0872 20.4526 18.147C20.3185 18.2067 20.1738 18.2388 20.0271 18.2414C19.8803 18.244 19.7346 18.217 19.5985 18.162C19.4624 18.1071 19.3388 18.0252 19.235 17.9215C19.1312 17.8177 19.0494 17.6941 18.9945 17.558C18.9395 17.4219 18.9125 17.2762 18.9151 17.1294C18.9177 16.9827 18.9498 16.838 19.0095 16.7039C19.0693 16.5699 19.1554 16.4492 19.2628 16.3492L21.769 13.8429H9.83504C9.5452 13.8429 9.26723 13.7277 9.06228 13.5228C8.85733 13.3178 8.74219 13.0399 8.74219 12.75C8.74219 12.4602 8.85733 12.1822 9.06228 11.9772C9.26723 11.7723 9.5452 11.6572 9.83504 11.6572H21.769L19.2628 9.15087Z" fill="#4169E1"/>
</svg>
