<svg width="25" height="26" viewBox="0 0 25 26" fill="none" xmlns="http://www.w3.org/2000/svg">
<path d="M12.2594 16.8996C14.4133 16.8996 16.1594 15.1535 16.1594 12.9996C16.1594 10.8457 14.4133 9.09961 12.2594 9.09961C10.1055 9.09961 8.35938 10.8457 8.35938 12.9996C8.35938 15.1535 10.1055 16.8996 12.2594 16.8996Z" stroke="#4169E1" stroke-width="1.95"/>
<path d="M14.5511 0.1976C14.074 -5.81145e-08 13.4682 0 12.2566 0C11.045 0 10.4392 -5.81145e-08 9.96214 0.1976C9.64647 0.328267 9.35966 0.519864 9.11808 0.76144C8.8765 1.00302 8.68491 1.28983 8.55424 1.6055C8.43464 1.8954 8.38654 2.2347 8.36834 2.7274C8.35988 3.08351 8.26122 3.43165 8.08161 3.73926C7.902 4.04687 7.6473 4.3039 7.34134 4.4863C7.03039 4.6602 6.6804 4.75237 6.32413 4.75419C5.96786 4.75601 5.61695 4.66742 5.30424 4.4967C4.86744 4.2653 4.55154 4.1379 4.23824 4.0963C3.55485 4.00643 2.86375 4.1916 2.31684 4.6111C1.90864 4.927 1.60444 5.4509 0.99864 6.5C0.39284 7.5491 0.0886404 8.073 0.0223404 8.5865C-0.0223339 8.92509 0.000136191 9.26916 0.088467 9.59906C0.176798 9.92897 0.329259 10.2382 0.53714 10.5092C0.72954 10.7588 0.99864 10.9681 1.41594 11.2307C2.03084 11.6168 2.42604 12.2746 2.42604 13C2.42604 13.7254 2.03084 14.3832 1.41594 14.768C0.99864 15.0319 0.72824 15.2412 0.53714 15.4908C0.329259 15.7618 0.176798 16.071 0.088467 16.4009C0.000136191 16.7308 -0.0223339 17.0749 0.0223404 17.4135C0.0899404 17.9257 0.39284 18.4509 0.99734 19.5C1.60444 20.5491 1.90734 21.073 2.31684 21.3889C2.58781 21.5968 2.89708 21.7492 3.22698 21.8376C3.55688 21.9259 3.90095 21.9484 4.23954 21.9037C4.55154 21.8621 4.86744 21.7347 5.30424 21.5033C5.61695 21.3326 5.96786 21.244 6.32413 21.2458C6.6804 21.2476 7.03039 21.3398 7.34134 21.5137C7.96924 21.8777 8.34234 22.5472 8.36834 23.2726C8.38654 23.7666 8.43334 24.1046 8.55424 24.3945C8.68491 24.7102 8.8765 24.997 9.11808 25.2386C9.35966 25.4801 9.64647 25.6717 9.96214 25.8024C10.4392 26 11.045 26 12.2566 26C13.4682 26 14.074 26 14.5511 25.8024C14.8668 25.6717 15.1536 25.4801 15.3952 25.2386C15.6368 24.997 15.8284 24.7102 15.959 24.3945C16.0786 24.1046 16.1267 23.7666 16.1449 23.2726C16.1709 22.5472 16.544 21.8764 17.1719 21.5137C17.4829 21.3398 17.8329 21.2476 18.1891 21.2458C18.5454 21.244 18.8963 21.3326 19.209 21.5033C19.6458 21.7347 19.9617 21.8621 20.2737 21.9037C20.6123 21.9484 20.9564 21.9259 21.2863 21.8376C21.6162 21.7492 21.9255 21.5968 22.1964 21.3889C22.6059 21.0743 22.9088 20.5491 23.5146 19.5C24.1204 18.4509 24.4246 17.927 24.4909 17.4135C24.5356 17.0749 24.5131 16.7308 24.4248 16.4009C24.3365 16.071 24.184 15.7618 23.9761 15.4908C23.7837 15.2412 23.5146 15.0319 23.0973 14.7693C22.793 14.5839 22.5408 14.3244 22.3641 14.0149C22.1874 13.7055 22.0922 13.3563 22.0872 13C22.0872 12.2746 22.4824 11.6168 23.0973 11.232C23.5146 10.9681 23.785 10.7588 23.9761 10.5092C24.184 10.2382 24.3365 9.92897 24.4248 9.59906C24.5131 9.26916 24.5356 8.92509 24.4909 8.5865C24.4233 8.0743 24.1204 7.5491 23.5159 6.5C22.9088 5.4509 22.6059 4.927 22.1964 4.6111C21.9255 4.40322 21.6162 4.25076 21.2863 4.16243C20.9564 4.0741 20.6123 4.05163 20.2737 4.0963C19.9617 4.1379 19.6458 4.2653 19.2077 4.4967C18.8952 4.66719 18.5445 4.75565 18.1885 4.75383C17.8325 4.75202 17.4827 4.65997 17.1719 4.4863C16.866 4.3039 16.6113 4.04687 16.4317 3.73926C16.2521 3.43165 16.1534 3.08351 16.1449 2.7274C16.1267 2.2334 16.0799 1.8954 15.959 1.6055C15.8284 1.28983 15.6368 1.00302 15.3952 0.76144C15.1536 0.519864 14.8668 0.328267 14.5511 0.1976Z" stroke="#4169E1" stroke-width="1.95"/>
</svg>
