<svg width="20" height="24" viewBox="0 0 20 24" fill="none" xmlns="http://www.w3.org/2000/svg">
<path d="M2.4 20.4004V9.60039C2.4 7.69083 3.15857 5.85948 4.50883 4.50922C5.85909 3.15896 7.69044 2.40039 9.6 2.40039C11.5096 2.40039 13.3409 3.15896 14.6912 4.50922C16.0414 5.85948 16.8 7.69083 16.8 9.60039V20.4004M2.4 20.4004H16.8M2.4 20.4004H0M16.8 20.4004H19.2M8.4 24.0004H10.8" stroke="#797777" stroke-width="1.8" stroke-linecap="round" stroke-linejoin="round"/>
<path d="M9.59844 2.4C10.2612 2.4 10.7984 1.86274 10.7984 1.2C10.7984 0.537258 10.2612 0 9.59844 0C8.9357 0 8.39844 0.537258 8.39844 1.2C8.39844 1.86274 8.9357 2.4 9.59844 2.4Z" stroke="#797777" stroke-width="1.8"/>
</svg>
