<svg width="25" height="21" viewBox="0 0 25 21" fill="none" xmlns="http://www.w3.org/2000/svg">
<path d="M14.8235 18.5294C14.8235 18.5294 16.0588 18.5294 17.2941 21C17.2941 21 21.2186 14.8235 24.7059 13.5882M4.32353 9.88235H4.31241M11.1176 19.7647H10.5C5.85653 19.7647 3.53541 19.7647 1.98512 18.5418C1.73875 18.3466 1.50977 18.1304 1.30076 17.8957C0 16.4381 0 14.2516 0 9.88235C0 5.51312 0 3.32788 1.30076 1.869C1.50912 1.63512 1.73724 1.42018 1.98512 1.22418C3.53541 2.20888e-07 5.85653 0 10.5 0H14.2059C18.8494 0 21.1705 -2.94517e-07 22.7195 1.22294C22.9682 1.42059 23.1968 1.63594 23.4051 1.869C24.5774 3.18335 24.6935 5.08694 24.7059 8.64706V9.26471" stroke="#494646" stroke-width="1.85294" stroke-linecap="round" stroke-linejoin="round"/>
<path d="M15.4382 9.88218C15.4382 10.7012 15.1128 11.4867 14.5337 12.0659C13.9545 12.645 13.169 12.9704 12.35 12.9704C11.5309 12.9704 10.7454 12.645 10.1662 12.0659C9.58709 11.4867 9.26172 10.7012 9.26172 9.88218C9.26172 9.06313 9.58709 8.27762 10.1662 7.69847C10.7454 7.11931 11.5309 6.79395 12.35 6.79395C13.169 6.79395 13.9545 7.11931 14.5337 7.69847C15.1128 8.27762 15.4382 9.06313 15.4382 9.88218Z" stroke="#494646" stroke-width="1.85294" stroke-linecap="round" stroke-linejoin="round"/>
</svg>
